/* XPM */
static char *result[] = {
/* columns rows colors chars-per-pixel */
"64 64 192 2 ",
"   c #585957",
".  c #575958",
"X  c #585858",
"o  c #4E6659",
"O  c #506458",
"+  c #457559",
"@  c #7D7244",
"#  c #746F5D",
"$  c #6F7F58",
"%  c #7E7556",
"&  c #77745A",
"*  c #5F6F67",
"=  c #597666",
"-  c #656666",
";  c #686765",
":  c #6B6962",
">  c #6A6C6A",
",  c #777778",
"<  c #8A7E4D",
"1  c #847A52",
"2  c #7DBC3B",
"3  c #3A845A",
"4  c #2A9D5B",
"5  c #34935B",
"6  c #24A65B",
"7  c #28A75E",
"8  c #25AA5D",
"9  c #2AA95F",
"0  c #37AB57",
"q  c #2BB15F",
"w  c #38B55C",
"e  c #2BA660",
"r  c #27AE60",
"t  c #2BA860",
"y  c #35A761",
"u  c #3BAD6B",
"i  c #27B061",
"p  c #28B162",
"a  c #29BA66",
"s  c #2FB768",
"d  c #2ABD68",
"f  c #35B862",
"g  c #33B469",
"h  c #3FB16F",
"j  c #31BE6C",
"k  c #3EB772",
"l  c #769340",
"z  c #45AC4E",
"x  c #52AE48",
"c  c #54B64D",
"v  c #48B857",
"b  c #51B353",
"n  c #56B95C",
"m  c #66B643",
"M  c #65B957",
"N  c #7ABD55",
"B  c #488663",
"V  c #598A62",
"C  c #41B371",
"Z  c #43B975",
"A  c #49B878",
"S  c #58B57F",
"D  c #35C06F",
"F  c #53C054",
"G  c #7CC340",
"H  c #6AC359",
"J  c #41C277",
"K  c #B69100",
"L  c #BB9500",
"P  c #BE9800",
"I  c #9A8535",
"U  c #9F8C3F",
"Y  c #90923C",
"T  c #B99D2F",
"R  c #A18D3E",
"E  c #AE9636",
"W  c #A6913B",
"Q  c #AA9438",
"!  c #B49A32",
"~  c #B89C30",
"^  c #95BA2C",
"/  c #8DBD33",
"(  c #8AB339",
")  c #94BF31",
"_  c #BCA12C",
"`  c #B4B428",
"'  c #BCA238",
"]  c #C59D00",
"[  c #CAA100",
"{  c #D4AA00",
"}  c #DAAE00",
"|  c #DEB200",
" . c #C7A51E",
".. c #D6B01B",
"X. c #D9B319",
"o. c #E8BA00",
"O. c #EABE0D",
"+. c #E6BC11",
"@. c #C6A625",
"#. c #CFAC20",
"$. c #9FC02C",
"%. c #99C532",
"&. c #A4C22A",
"*. c #B9C320",
"=. c #A9C336",
"-. c #C9C81A",
";. c #D5C512",
":. c #EFC907",
">. c #EEC10A",
",. c #E4C90C",
"<. c #EAC909",
"1. c #F5C505",
"2. c #F9C700",
"3. c #F5CA04",
"4. c #FFCC00",
"5. c #F1C309",
"6. c #FCCD0C",
"7. c #FECF13",
"8. c #FACE1F",
"9. c #FFD016",
"0. c #F5D01C",
"q. c #FFD11A",
"w. c #DECF38",
"e. c #FED223",
"r. c #FFD52E",
"t. c #E8D131",
"y. c #FFD73B",
"u. c #8E8549",
"i. c #958546",
"p. c #9B8942",
"a. c #80BA51",
"s. c #95C34F",
"d. c #A7C64A",
"f. c #C8CB48",
"g. c #DED145",
"h. c #EAD345",
"j. c #F7D543",
"k. c #F1D45B",
"l. c #EED367",
"z. c #FFDF60",
"x. c #EBD677",
"c. c #56BD82",
"v. c #67B98A",
"b. c #7CBF98",
"n. c #5AC688",
"m. c #60C38A",
"M. c #6EC492",
"N. c #76C799",
"B. c #7CCA9D",
"V. c #818181",
"C. c #A2A2A2",
"Z. c #BCBCBC",
"A. c #84CDA3",
"S. c #8ACCA6",
"D. c #98C8AD",
"F. c #87D0A5",
"G. c #8BD3A9",
"H. c #8CDBAD",
"J. c #93D4AA",
"K. c #9CCCB0",
"L. c #99DBB5",
"P. c #A6CEB6",
"I. c #AAD3B1",
"U. c #E7D692",
"Y. c #FAE58F",
"T. c #FFEA97",
"R. c #D3CDB2",
"E. c #DFD9BF",
"W. c #E3D7A8",
"Q. c #B4D9C4",
"!. c #A9E0C0",
"~. c #BDE5CE",
"^. c #C3D4CA",
"/. c #CAD7CF",
"(. c #DBDACB",
"). c #D8D7D5",
"_. c #D2D9D5",
"`. c #D7DDD9",
"'. c #DBDBDB",
"]. c #C8E3D4",
"[. c #DFDFE0",
"{. c #DCE7E0",
"}. c #DBEBE2",
"|. c #E4E5E4",
" X c #E6ECE9",
".X c #ECEDED",
"XX c #FFFBEE",
"oX c #ECF9F1",
"OX c #F5F5F5",
"+X c #F3FBF7",
"@X c #FAFBF7",
"#X c #FFFFFF",
/* pixels */
"p p p a d d d d d d d a r i i r 6 6 6 6 6 6 6 6 6 6 6 6 6 6 6 6 6 6 6 6 6 6 6 6 6 8 p p p 8 6 6 6 6 6 6 6 6 6 6 6 6 6 8 r p p p ",
"p p d d d d d d d d d d d r p p 6 6 6 6 6 6 6 6 6 6 6 6 6 6 6 6 6 6 6 6 6 6 6 6 6 r p p 8 6 6 6 6 6 6 6 6 6 6 6 6 6 6 6 8 i i p ",
"r a d d d d d d d d d d d d p p 8 6 6 6 6 6 6 6 6 6 6 6 6 6 6 6 6 6 6 6 6 6 6 6 8 i p i 6 6 6 6 6 6 6 6 6 6 6 6 6 6 6 6 6 r p p ",
"d d d d d d d d d d d d d d a i r 6 6 6 6 6 6 6 6 6 6 6 6 6 6 6 6 6 6 6 6 6 6 6 r p p 8 6 6 6 6 6 6 6 6 6 6 6 6 6 6 6 6 6 8 p p ",
"d d d d d d d d d d d d d d d i p r 6 6 6 6 6 6 6 6 6 6 6 6 6 6 6 6 6 6 6 6 6 8 i a r 8 6 6 6 6 6 6 6 6 6 6 6 6 6 6 6 6 6 6 p d ",
"d d d d d d d d d d d d d d d d p p r 6 6 6 6 6 6 6 6 6 6 6 6 6 6 6 6 6 6 6 8 i i i i r 6 6 6 6 6 6 6 6 6 6 6 6 6 6 6 6 6 8 p d ",
"d d d d d d d d d d d d d d d d p p p 8 6 6 6 6 6 6 6 6 6 6 6 6 6 6 6 6 6 r p p 8 i i a 8 6 6 6 6 6 6 6 6 6 6 6 6 6 6 6 8 i d d ",
"d d d d d d d d d d d d d d d d a p p p 6 6 6 6 6 6 6 6 6 6 6 6 6 6 6 6 6 p p p a a a i i 6 6 6 6 6 6 6 6 6 6 6 6 6 6 6 r r a d ",
"d d d d d d d d d d d d d d d d a r p p p r 6 6 6 6 6 6 6 6 6 6 6 6 6 8 p p a d d d d a i i 6 6 6 6 6 6 6 6 6 6 6 6 6 r i p p d ",
"d d d d d d d d d d d d d d d d p p p r p r r 6 6 6 6 6 6 6 6 6 6 6 8 i p a d d d d d d d i 8 8 6 6 6 6 6 6 6 6 6 6 r p p p r d ",
"d d d d d d d d d d d d d d d i p p p i p p p r 6 6 6 6 6 6 6 6 6 r i p a d d d d d d d D d p p 8 6 6 6 6 6 6 6 6 r p p p p p i ",
"i d d d d d d d d d d d d d j M.G.B.Z i p p p p r 6 6 6 6 6 6 6 r p r a d d d d d d d d D m.L.!.J.C 6 6 6 6 6 6 r i i p p p p p ",
"i a d d d d d d d d d d d c.P. X.X.X].n.p p p p p r r 6 6 6 8 p r r p d d d d d d d d D H.oX#X#X#X~.Z 6 6 6 8 r p r 8 8 6 8 8 p ",
"i i a d d d d d d d d J G.{..X X|.|. X^.k p r p p p p r p p p r p p p d d d d d d d D H.@X#X#X#X#X#X~.Z r r i p 8 6 6 6 6 6 6 6 ",
"6 i i a d d a D d D N.]..X|.{.'.'.'.[.|.A.p p p p p p p p p p p p p p a d d d d d j H.+X#X#X#X#X#X#X#X~.Z i p 8 6 6 6 6 6 6 6 6 ",
"6 6 8 i i a D D n.Q. X X[.'.'.'.'.'.'.|.].A p p p r p p p p p r p p p p d d d d d H.+X#X#X#X#X#X#X#X#X#X~.Z 8 6 6 6 6 6 6 6 6 6 ",
"6 6 6 8 i i a B.|. X|.'.'.'.).'.'.'.'.'.|.K.s p r p p p p p p p p p i i i D d D H.+X#X#X#X#X#X#X#X#X#X#X#X~.h 6 6 6 6 6 6 6 6 6 ",
"6 6 6 6 i i n.}.|.'.'.'.'.'.'.'.'.'.'.).'.{.m.p p p p p p p p r i r a i i i D H.+X#X#X#X#X#X#X#X#X#X#X#X#X#X~.h 6 6 6 6 6 6 6 6 ",
"6 6 6 6 6 r n.`.'.'.'.'.'.'.'.'.'.'.'.'.'.|.Q.g p p p p p p r r 8 8 r i i a G.+X#X#X#X#X#X#X#X#X#X#X#X#X#X#X#X~.g 6 6 6 6 6 6 6 ",
"6 6 6 6 6 6 s P.'.'.'.'.'.'.'.'.'.'.'.'.'.'. XB.p p p r r 6 6 6 6 6 6 6 a F.+X#X#X#X#X#X#X#X#X#X#X#X#X#X#X#X#X@XN.6 6 6 6 6 6 6 ",
"6 6 6 6 6 6 6 c./.'.'.'.'.'.'.'.'.'.'.).'.'.[.].A p p r 6 6 6 6 6 6 6 r F.+X#X#X#X#X#X#X#X#X#X#X#X#X#X#X#X#X#X#XB.6 6 6 6 6 6 6 ",
"6 6 6 6 6 6 6 6 v._.'.'.'.'.'.'.'.'.'.).'.'.'.|.J.p 8 6 6 6 6 6 6 6 e S.+X#X#X#X#X#X#X#X#X#X#X#X#X#X#X#X#X#X#X}.C 6 6 6 6 6 6 6 ",
"6 6 6 6 6 6 6 6 7 B._.'.'.'.'.'.'.E.W.U.x.l.k.k.x.s.N M b z 0 7 6 7 S.+X#X#X#X#X#X#X#X#X#X#X#X#X#X#X#X#X#X#XOX`.v.6 6 6 6 6 6 6 ",
"6 6 6 6 6 6 6 6 6 g S.'.'.'.).W.k.8.6.4.4.4.4.4.q.y.j.j.h.h.f.d.N J.+X#X#X#X#X#X#X#X#X#X#X#X#X#X#X#X#X#X#X.X'.'.Q.u 6 6 6 6 6 6 ",
"6 6 6 6 6 6 6 6 6 8 g K.).(.l.7.4.4.4.4.4.4.4.4.4.q.q.e.r.r.y.j.Y.XX#X#X#X#X#X#X#X#X#X#X#X#X#X#X#X#X#XOX|.'.'.'.).S 6 6 6 6 6 6 ",
"6 6 6 6 6 6 6 6 6 6 p k I.k.4.4.4.4.4.4.4.4.4.4.4.4.4.4.4.4.6.k.XX#X#X#X#X#X#X#X#X#X#X#X#X#X#X#X#X#X.X[.'.'.).'./.A 6 6 6 6 6 6 ",
"6 6 6 6 6 6 6 6 6 6 p f =.4.4.4.4.4.4.4.4.4.4.4.4.4.4.4.4.4.4.T.#X#X#X#X#X#X#X#X#X#X#X#X#X#X#X#XOX|.'.'.'.'.)._.b.7 6 6 6 6 6 6 ",
"6 6 6 6 6 6 6 6 6 8 f a.6.4.4.4.4.4.4.4.4.4.4.4.4.4.4.4.4.4.4.z.#X#X#X#X#X#X#X#X#X#X#X#X#X#X@X.X[.'.'.'.).^.D.S 4 6 6 6 6 6 6 6 ",
"6 6 6 6 6 6 6 6 8 p n t.4.4.4.4.4.4.4.4.4.4.4.4.4.4.4.4.4.4.4.7.T.#X#X#X#X#X#X#X#X#X#X#X#XOX|.'.'.'.^.D.v.u 7 6 6 6 6 6 6 6 6 6 ",
"6 6 6 6 6 6 6 6 9 p d.9.4.4.4.4.4.4.4.4.4.4.4.4.4.4.4.4.4.4.4.4.9.T.@X#X#X#X#X#X#X#X#X#X.X'.'./.D.v.C 7 6 6 6 6 6 6 6 6 6 6 6 6 ",
"6 6 6 6 6 6 6 r p n t.4.4.4.4.4.4.4.4.4.4.4.4.4.4.4.4.4.4.4.4.4.4.6.Y.@X#X#X#X#X#X#X@X X(.P.N.C p 6 6 6 6 6 6 6 6 6 6 6 6 6 6 6 ",
"6 6 6 6 6 6 8 r p H 8.4.4.4.4.4.4.4.4.4.4.4.4.4.4.4.4.4.4.4.4.4.4.4.' Z.#X#X#X#X@X|.R.x.k.N p p p r 6 6 6 6 6 6 6 6 6 6 6 6 6 6 ",
"6 6 6 6 6 8 p p p s.6.4.4.4.4.4.4.4.2.2.4.4.4.4.4.4.4.4.4.4.4.4.4.3.< , Z.OXOX_.C., ' 9.y.g.n p p r i 6 6 6 6 6 6 6 6 6 6 6 6 6 ",
"6 6 6 8 8 p p p p d.4.4.4.4.4.2.} ] ] [ o.4.4.4.4.4.4.4.4.4.4.4.4...: - ; , V.> - % O.4.9.y.d.f p p p r 6 6 6 6 6 6 6 6 6 6 6 6 ",
"6 6 6 8 p p p i p =.4.4.4.4.4.o.L K K K ] 1.4.4.4.4.4.4.4.4.4.4.4.W - - - - - - ; ~ 4.4.4.q.j.n p p p p r 8 6 6 6 6 6 6 6 6 6 6 ",
"6 6 8 p p p p p q &.4.4.4.4.2.] K K K K K } 4.4.4.4.4.4.4.4.4.4.+.& - - - - - - < 5.4.4.4.4.e.d.p p p p p i 6 6 6 6 6 6 6 6 6 6 ",
"6 8 p p i p p p q 2 4.4.4.4.2.P K K K K K { 4.4.4.4.4.4.4.4.4.4.! - - - - - - # #.4.4.4.4.4.6.w.f p q i i i r 8 6 6 6 6 6 6 6 6 ",
"8 p p p i r p p 8 2 1.4.4.4.4.] K K K K K | 4.4.4.4.4.4.4.4.4.O.1 - - ; - - - W 2.4.4.4.4.4.4.0.H s a d p p p p 8 6 6 6 6 6 6 6 ",
"p p p p i a 9 8 6 0 ;.4.4.4.4.o.P K K K [ 2.4.4.4.4.4.4.4.4.4.! - - - - - - 1 O.4.4.4.4.4.4.4.6.a.d d d d r i p p r 8 6 6 6 8 i ",
"p p p p i i q 6 6 6 / 4.4.4.4.4.o.{ { | 2.4.4.4.4.4.4.4.4.4.,.% - - - - - # ..4.4.4.4.4.4.4.4.~ V s d d d d p i p i p p i p p p ",
"p p p p p p 8 6 6 6 z ;.2.4.4.4.4.4.4.4.4.4.4.4.4.4.4.4.4.4.W - - - - - : @.4.4.4.4.4.4.4.3.~ : = s d d d d d r p p p p p p i p ",
"p p p i p 8 6 6 6 6 4 Y >.4.4.4.4.4.4.4.4.4.4.4.4.4.4.4.4...# - - - - ; Q 3.4.4.4.4.4.4.3.Q : - = s d d d d d a p p p p p p p p ",
"p p p p r 6 6 6 6 6 3 X I 1.4.4.4.4.4.4.4.4.4.4.4.4.4.4.5.u.- - - ; ; U 1.4.4.4.4.4.4.5.W : - - = s d d d d d d d r p p p p p p ",
"p p p p 8 6 6 6 6 6 o X   I O.4.4.4.4.4.4.4.4.4.4.4.4.4.` 5 = - - - p.O.4.4.4.4.4.4.5.R - - - - * g d d d d d d d a p r p p p r ",
"i p p p 8 6 6 6 6 5 . X X X @  .1.4.4.4.4.4.4.4.4.4.,.) w 8 B - ; i.O.4.4.4.4.4.4.>.i.- - - - - $ w D D d d d d d d a p p p p r ",
"p p p p 8 8 6 6 6 4 + X X   X   l ^ ;.<.:.:.:.<.-./ b i r i y - R O.4.4.4.4.4.4.X.< - - - - - u.@.D a a d d d d d d d p p p p p ",
"p p p p i 8 6 6 6 6 4 3 O X X O 4 6 0 z x c c v w r p p p p y W 5.4.4.4.4.4.4.#.% - - - - - i.>.-.d D a d d d d d d d r p p p p ",
"p p p i p r 8 6 6 6 6 6 4 3 + 5 6 6 6 6 8 i p i p p p p r p w ;.4.4.4.4.4.3.T # - - - - : W 5.4.&.a a a d d d d d d d r p p p p ",
"p p p p p p i 6 6 6 6 6 6 6 6 6 6 6 6 8 i i p p p p r p i p q *.4.4.4.4.O.U ; - - - - & @.3.4.4.G d d d d d d d d d a i i i i a ",
"r p p p r p p p 8 6 6 6 6 6 6 6 6 6 6 i p p p p p p p p p p p ) 4.4.4...1 - - - - - u.X.4.4.4.;.F d d d d d d d a a i i q i q i ",
"p r p p p p p p p r 6 6 6 6 6 6 6 6 r p p p p p p p p p q i p b <.1.~ # - - - - # E >.4.4.4.3.%.D d d d d d d a a i i i a d D d ",
"d a p p p p p p p p r 6 6 6 6 6 6 r p p p p p i i p r 6 8 8 8 p ( u.; - - - : u.X.4.4.4.4.4.-.F d d d d d d d a i i i a d d d d ",
"d d a r r p r p p p p p r 8 8 8 r p i p p p p p r 6 6 6 6 6 6 6 t = - - ; < @.1.4.4.4.4.4.;.F d d d d d d d a a i i a d d d d d ",
"d d d d p p p p p i p p r p p r p p p p p p i r 6 6 6 6 6 6 6 6 8 9 B V _ >.4.4.4.4.4.,.^ v d d d d d d a a i i i a d d d d d d ",
"d d d d a r p p p p p p r p p p p p i p p p 8 6 6 6 6 6 6 6 6 6 6 6 9 w m %.&.&.&.$.N c p p p a d a a a a i i i a a d d d d d d ",
"d d d d d r p p p r p p p p p p p p p p i r 6 6 6 6 6 6 6 6 6 6 6 6 6 8 i q q q q q q q p p p p a a a i i i i i d a d d d d d d ",
"d d d d d p p p p p p p p p r p p p p i 8 8 6 6 6 6 6 6 6 6 6 6 6 6 6 6 6 q q p p p p p r p p p i p p p a i i i a a d d d d d d ",
"d d d d p p p p p p p p p p p p p p p r 6 6 6 6 6 6 6 6 6 6 6 6 6 6 6 6 6 8 p p i p p p p p p p p p p i i i a i a d d d d d d d ",
"d d d a p p p p p p p p p p p p i i r 6 6 6 6 6 6 6 6 6 6 6 6 6 6 6 6 6 6 6 8 p p p p p p p p r p p i i i i i i i a d d d d d d ",
"d d a p p p p p p p r p r p p p i i 6 6 6 6 6 6 6 6 6 6 6 6 6 6 6 6 6 6 6 6 6 q p p p i p p p p p p 8 6 6 6 6 i i i a d d d d d ",
"d a i p p p p p p p p p p p p p i 8 6 6 6 6 6 6 6 6 6 6 6 6 6 6 6 6 6 6 6 6 6 6 r p p p p i i i p 8 6 6 6 6 6 6 i i a a d d d d ",
"p p p p p p p p p p p p p p p p 8 6 6 6 6 6 6 6 6 6 6 6 6 6 6 6 6 6 6 6 6 6 6 6 8 i p p p p p r 8 6 6 6 6 6 6 6 6 i i i a a d d ",
"p p p p p p p d d p p r p p p p 6 6 6 6 6 6 6 6 6 6 6 6 6 6 6 6 6 6 6 6 6 6 6 6 6 r i p p p r 8 6 6 6 6 6 6 6 6 6 6 i i i i i i ",
"p i p p p d d d d d d p p p r r 6 6 6 6 6 6 6 6 6 6 6 6 6 6 6 6 6 6 6 6 6 6 6 6 6 r p p p p 8 6 6 6 6 6 6 6 6 6 6 6 8 i i i i i "
};
