/* XPM */
static char *result[] = {
/* columns rows colors chars-per-pixel */
"64 64 193 2 ",
"   c #575759",
".  c #565C58",
"X  c #615E53",
"o  c #4C6A59",
"O  c #506558",
"+  c #42785A",
"@  c #766D48",
"#  c #726E5E",
"$  c #797459",
"%  c #4D7D62",
"&  c #5C7165",
"*  c #666666",
"=  c #686765",
"-  c #626967",
";  c #6A6963",
":  c gray42",
">  c #767677",
",  c #8A7E4E",
"<  c #807755",
"1  c #837A52",
"2  c #7DB939",
"3  c #39875A",
"4  c #2B9D5C",
"5  c #33905A",
"6  c #24A65B",
"7  c #2BA45B",
"8  c #25AA5D",
"9  c #3CAB55",
"0  c #2EB25F",
"q  c #34B35C",
"w  c #3BB35A",
"e  c #3E9D63",
"r  c #27AE60",
"t  c #2BAC62",
"y  c #32AA63",
"u  c #36AE69",
"i  c #3AAE6B",
"p  c #27B061",
"a  c #28B162",
"s  c #29BA66",
"d  c #2ABD68",
"f  c #32BE64",
"g  c #34B66B",
"h  c #30B869",
"j  c #3BB870",
"k  c #479958",
"l  c #50AE49",
"z  c #5AB84B",
"x  c #46AD52",
"c  c #43B959",
"v  c #55B558",
"b  c #65AC47",
"n  c #64B544",
"m  c #69BD58",
"M  c #79B951",
"N  c #4A8865",
"B  c #528C64",
"V  c #439466",
"C  c #43AF71",
"Z  c #44B272",
"A  c #48B074",
"S  c #49B876",
"D  c #77BF65",
"F  c #36C070",
"G  c #4BC058",
"H  c #5BC150",
"J  c #6FC247",
"K  c #46C67C",
"L  c #B69100",
"P  c #BA9400",
"I  c #BF9800",
"U  c #BBB81E",
"Y  c #9B893D",
"T  c #BA9E2E",
"R  c #A18D3E",
"E  c #AA9437",
"W  c #B59B31",
"Q  c #97BA2C",
"!  c #86B534",
"~  c #94BF34",
"^  c #C39B00",
"/  c #D1A700",
"(  c #D5AA00",
")  c #DBAF00",
"_  c #C8A61D",
"`  c #CEAE1C",
"'  c #D2AE1E",
"]  c #DDB513",
"[  c #D8B219",
"{  c #E4B600",
"}  c #EBBC00",
"|  c #EABE0E",
" . c #E4BA12",
".. c #E1BA1E",
"X. c #C9A824",
"o. c #C5B322",
"O. c #93C535",
"+. c #A3C22B",
"@. c #B2C525",
"#. c #BBC722",
"$. c #DEC70E",
"%. c #C6C51A",
"&. c #D4C613",
"*. c #D9C712",
"=. c #E4C70C",
"-. c #EDC40B",
";. c #E7C90C",
":. c #F5C504",
">. c #F8C700",
",. c #F4CB05",
"<. c #FFCC00",
"1. c #F2C409",
"2. c #FFCE0B",
"3. c #FBCE16",
"4. c #FFD11B",
"5. c #C2C634",
"6. c #F9CF26",
"7. c #FFD222",
"8. c #FFD42A",
"9. c #FFD636",
"0. c #F6D03C",
"q. c #FCD73D",
"w. c #8F814B",
"e. c #968646",
"r. c #85B241",
"t. c #ADC54B",
"y. c #DCD046",
"u. c #EDD549",
"i. c #F4D443",
"p. c #FDD844",
"a. c #F8D858",
"s. c #DDC874",
"d. c #EBD36A",
"f. c #ECD470",
"g. c #5AB982",
"h. c #70BC90",
"j. c #7CBF98",
"k. c #4CC880",
"l. c #59C486",
"z. c #61C48B",
"x. c #72C595",
"c. c #70CD95",
"v. c #7BC89D",
"b. c #7FD1A1",
"n. c #969386",
"m. c #9E9E9F",
"M. c gray70",
"N. c #B3CE9E",
"B. c #85CAA2",
"V. c #8DCDA8",
"C. c #93C6A9",
"Z. c #9ACCAF",
"A. c #8DD6AC",
"S. c #90D2AC",
"D. c #9FCCB2",
"F. c #9AD9B5",
"G. c #BFD7A4",
"H. c #A8D3BA",
"J. c #A5DCBD",
"K. c #E7D585",
"L. c #FFE680",
"P. c #FFE993",
"I. c #CCC8BB",
"U. c #E2D7AB",
"Y. c #E1D9B7",
"T. c #FFF0B7",
"R. c #ACDDC1",
"E. c #B9D7C6",
"W. c #B2DCC3",
"Q. c #ABE1C2",
"!. c #BAE4CC",
"~. c #C8CDCA",
"^. c #C6D7CE",
"/. c #DFD9C3",
"(. c #DEDAC9",
"). c #D6D9D3",
"_. c #DBDBDB",
"`. c #CAE7D6",
"'. c #D7E8DE",
"]. c #EBE7CF",
"[. c #FAF3CA",
"{. c #DFDFE0",
"}. c #DAEDE2",
"|. c #E2E3E3",
" X c #E5E7E9",
".X c #EBECEB",
"XX c #E6F7ED",
"oX c #FFF9E3",
"OX c #ECF8F1",
"+X c #F4F4F4",
"@X c #F1FAF5",
"#X c #FAFCF4",
"$X c #FFFFFF",
/* pixels */
"a a a s d d d d d d d s r p a r 6 6 6 6 6 6 6 6 6 6 6 6 6 6 6 6 6 6 6 6 6 6 6 6 6 r r a a 8 6 6 6 6 6 6 6 6 6 6 6 6 6 6 r p p a ",
"a a d d d d d d d d d d d r a a 6 6 6 6 6 6 6 6 6 6 6 6 6 6 6 6 6 6 6 6 6 6 6 6 6 r r a r 6 6 6 6 6 6 6 6 6 6 6 6 6 6 6 6 p a a ",
"r s d d d d d d d d d d d s a a r 6 6 6 6 6 6 6 6 6 6 6 6 6 6 6 6 6 6 6 6 6 6 6 8 a r r 6 6 6 6 6 6 6 6 6 6 6 6 6 6 6 6 6 r a a ",
"d d d d d d d d d d d d d d s a r 6 6 6 6 6 6 6 6 6 6 6 6 6 6 6 6 6 6 6 6 6 6 6 r a p r 6 6 6 6 6 6 6 6 6 6 6 6 6 6 6 6 6 r a a ",
"d d d d d d d d d d d d d d d p a r 6 6 6 6 6 6 6 6 6 6 6 6 6 6 6 6 6 6 6 6 6 8 a a a r 6 6 6 6 6 6 6 6 6 6 6 6 6 6 6 6 6 6 r s ",
"d d d d d d d d d d d d d d d d a a r 6 6 6 6 6 6 6 6 6 6 6 6 6 6 6 6 6 6 6 8 r a a a p 6 6 6 6 6 6 6 6 6 6 6 6 6 6 6 6 6 r s d ",
"d d d d d d d d d d d d d d d d a a r r 6 6 6 6 6 6 6 6 6 6 6 6 6 6 6 6 6 r a a p a a p 8 6 6 6 6 6 6 6 6 6 6 6 6 6 6 6 r a s s ",
"d d d d d d d d d d d d d d d d s a r r 6 6 6 6 6 6 6 6 6 6 6 6 6 6 6 6 6 a a a s a s p p 6 6 6 6 6 6 6 6 6 6 6 6 6 6 6 r p a d ",
"d d d d d d d d d d d d d d d d s r a a a r 6 6 6 6 6 6 6 6 6 6 6 6 6 8 a a s d d d d s a r 6 6 6 6 6 6 6 6 6 6 6 6 6 r p a a F ",
"d d d d d d d d d d d d d d d d a a a a a r r 6 6 6 6 6 6 6 6 6 6 6 8 p p s d d d d d d s a r 8 6 6 6 6 6 6 6 6 6 6 r a a a p s ",
"d d d d d d d d d d d d d d d a r a a a a a a r 6 6 6 6 6 6 6 6 6 r p a s d d d d d d d d s a p 6 6 6 6 6 6 6 6 6 r p a p p p p ",
"p d d d d d d d d d d d d d s p a a a a a a a a r 6 6 6 6 6 6 6 r a a a d d d d d d d d d d s a r 8 6 6 6 6 6 6 r p p p p s p p ",
"p s d d d d d d d d d d d p a a a a a a a a a a a a r 6 6 6 6 r p p a d d d d d d d d d d d d a a p 8 6 6 6 6 r p p 8 6 6 6 r p ",
"r p a d d d d d d d F j g a a a a r a a a r a a a r r r a a a a a a a d d d d d d d d d d d d s a a a r r r a a r 6 6 6 6 6 6 6 ",
"6 r p d d d d d F c.!.`.E.V.S 8 6 6 6 r a a a a a a a a a a a a a a a s d d d d d d d d d d d p a r a a a a a r 6 6 6 6 6 6 6 6 ",
"6 6 r p d d d d k.'..X.X.X.X`.x.y 6 6 r a a a a a a a a a a a a a a a a d d d d d d d d d d s p a h j l.F.R.R.S.j 6 6 6 6 6 6 6 ",
"6 6 6 8 a a s a D. X{._._.{. X XW.g.t 6 r r r r a a a a a a a a a a a a a d d d d s F F d s g l.b.Q.}.@X$X$X$X$X`.u 6 6 6 6 6 6 ",
"6 6 6 6 r a a z.{._._._._._._.|..X}.Z.C 6 r a r a a a a a a a r a a a a a a d d d s F k.b.J.`.OX$X$X$X$X$X$X$X$X#Xx.6 6 6 6 6 6 ",
"6 6 6 6 6 r g W.{._._._._._._._.{. X.X'.v.u r a t a a h a a a r t 8 r a a a s K c.A.`.XX@X$X$X$X$X$X$X$X$X$X$X$X$XF.6 6 6 6 6 6 ",
"6 6 6 6 6 6 x.|._._._._._._._._._._.{.].].G.D m m m m H v x 9 t 6 6 6 g l.A.!.XX@X$X$X$X$X$X$X$X$X$X$X$X$X$X$X$X$X`.y 8 6 6 6 6 ",
"6 6 6 6 6 i ^.{._._.)._._._._._._.Y.f.0.7.9.0.i.i.i.i.i.i.u.y.t.M v h.`.@X$X$X$X$X$X$X$X$X$X$X$X$X$X$X$X$X$X$X$X$XXXS 6 6 6 6 6 ",
"6 6 6 6 6 B. X_._._._._._._.{.(.f.3.<.<.<.<.2.3.7.7.7.7.7.9.9.q.p.u.[.$X$X$X$X$X$X$X$X$X$X$X$X$X$X$X$X$X$X$X$X$X$X$Xv.6 6 6 6 6 ",
"6 6 6 6 Z ).'._._._._._._._.Y.i.<.<.<.<.<.<.<.<.<.<.<.<.<.<.<.2.4.9.[.$X$X$X$X$X$X$X$X$X$X$X$X$X$X$X$X$X$X$X$X$X$X$XJ.8 6 6 6 6 ",
"6 6 6 8 B.|._._._._._._._./.i.<.<.<.<.<.<.<.<.<.<.<.<.<.<.<.<.<.<.<.P.$X$X$X$X$X$X$X$X$X$X$X$X$X$X$X$X$X$X$X$X$X$X$X'.u 6 6 6 6 ",
"6 6 6 6 C._._._._._._._.).u.<.<.<.<.<.<.<.<.<.<.<.<.<.<.<.<.<.<.<.<.a.$X$X$X$X$X$X$X$X$X$X$X$X$X$X$X$X$X$X$X$X$X$X$XOXg.6 6 6 6 ",
"6 6 6 6 C E._._._._._._.K.2.<.<.<.<.<.<.<.<.<.<.<.<.<.<.<.<.<.<.<.<.8.oX$X$X$X$X$X$X$X$X$X$X$X$X$X$X$X$X$X$X$X$X$X$X$XB.6 6 6 6 ",
"6 6 6 6 6 A C.^._.{._./.8.<.<.<.<.<.<.<.<.<.<.<.<.<.<.<.<.<.<.<.<.<.2.T.$X$X$X$X$X$X$X$X$X$X$X$X$X$X$X$X$X$X$X$X$X$X$XR.6 6 6 6 ",
"6 6 6 6 6 6 t C h.D.^.s.<.<.<.<.<.<.<.<.<.<.<.<.<.<.<.<.<.<.<.<.<.<.<.L.$X$X$X$X$X$X$X$X$X$X$X$X$X$X$X$X$X$X$X$X$X$X$XF.6 6 6 6 ",
"6 6 6 6 6 6 6 6 6 a S 5.<.<.<.<.<.<.<.<.<.<.<.<.<.<.<.<.<.<.<.<.<.<.<.p.#X$X$X$X$X$X$X$X$X$X$X$X$X$X$X$X$X$X$X$X$X@XW.Z 6 6 6 6 ",
"6 6 6 6 6 6 6 6 r a y %.<.<.<.<.<.<.<.<.<.<.<.<.<.<.<.<.<.<.<.<.<.<.<...I.#X$X$X$X$X$X$X$X#X$X#X#X+X+X+X+X.X.X.X X).Z 6 6 6 6 6 ",
"6 6 6 6 6 6 6 r a a w *.<.<.<.<.<.>.{ ) ) } <.<.<.<.<.<.<.<.<.<.<.<.<.E : m.M.~._.{. X X X{. X{._.{._._._._._._._.^.C 6 6 6 6 6 ",
"6 6 6 6 6 6 8 p a a w ;.<.<.<.<.<./ L L L P ) <.<.<.<.<.<.<.<.<.<.<.| < * * * * : > n.s.K.U./.)._._._._._._._._.{.^.Z 6 6 6 6 6 ",
"6 6 6 6 6 8 a a a a w ;.<.<.<.<.} L L L L L ^ >.<.<.<.<.<.<.<.<.<.<.X.* * * * * * * e.>.<.3.6.i.d.N.H.^.)._._._._.Z.t 4 6 6 6 6 ",
"6 6 6 8 8 a a a a 0 w &.<.<.<.<.) L L L L L L } <.<.<.<.<.<.<.<.<.:.w.* * * * * * $  .<.<.<.<.<.<.~ g A g.j.C.C.j.i 6 6 6 6 6 6 ",
"6 6 6 8 a a p a a p 0 @.<.<.<.<.{ L L L L L P } <.<.<.<.<.<.<.<.<.' ; * * * * * ; X.<.<.<.<.<.<.<.%.w r r 8 6 6 6 6 6 6 6 6 6 6 ",
"6 6 8 a a a a a a a 8 ! <.<.<.<.>.^ L L L L / >.<.<.<.<.<.<.<.<.,.w.* = * * * * e.,.<.<.<.<.<.<.<.=.x a a r 8 6 6 6 6 6 6 6 6 6 ",
"6 p a a a a a a a 8 6 x $.<.<.<.<.} / I I ( >.<.<.<.<.<.<.<.<.<.X.; * = = * * <  .<.<.<.<.<.<.<.1.E 4 p a a r 8 6 6 6 6 6 6 6 6 ",
"8 a a a a p p a 8 6 6 6 Q <.<.<.<.<.>.>.>.<.<.<.<.<.<.<.<.<.<.1., * * * * * # ' <.<.<.<.<.<.<.1.E ; e s a a a a 8 6 6 6 6 6 6 6 ",
"a a a a a a 0 8 6 6 6 6 k ` <.<.<.<.<.<.<.<.<.<.<.<.<.<.<.<.>.W = * * * = ; W <.<.<.<.<.<.<.1.R ; * V F d r r a p r 8 6 6 6 8 r ",
"a a a a a p p 6 6 6 6 6 + @ ] <.<.<.<.<.<.<.<.<.<.<.<.<.<.<.] # * * = * = E ,.<.<.<.<.<.<.1.R = - ; N F d d a a p p a a a p p p ",
"a a a a a a 6 6 6 6 6 5     @ ] <.<.<.<.<.<.<.<.<.<.<.<.<.:.r.% * * * * R ,.<.<.<.<.<.<.| e.= * * * N d d d s a a a a a a a p a ",
"a a a a a 8 6 6 6 6 6 +       @ _ >.<.<.<.<.<.<.<.<.<.<.=.! 7 4 & * * R 1.<.<.<.<.<.<. .w.* = = * * B d d d d d a a a p a a a a ",
"a a a a p 6 6 6 6 6 6 3 .       X Y U $.,.<.<.<.,.,.*.Q l 7 6 6 % * R 1.<.<.<.<.<.<.[ 1 * * * = * , r.d d d d d s a a a a p a a ",
"a a p a 8 6 6 6 6 6 6 6 3 o       o 4 9 2 2 2 2 2 n c t 6 6 6 6 N R 1.<.<.<.<.<.<.X.$ * * * * = w. .O.d d d d d d s a a a a a a ",
"a a a a 8 6 6 6 6 6 6 6 6 4 + O o 4 6 6 6 6 6 p r a a a r 8 6 6 b :.<.<.<.<.<.:.W ; * * * * = R -.2.J d d d d d d d a a a r a a ",
"a a a a 8 6 6 6 6 6 6 6 6 6 6 4 6 6 6 6 6 6 p p a a a a a a a a z ,.<.<.<.<.| e.; * * * * # W ,.<.=.G d d d d d d d d a a a a a ",
"a a a a a 6 6 6 6 6 6 6 6 6 6 6 6 6 6 6 6 p p p a a a a a a a a w $.<.<.<.' 1 * * * * * 1 ' <.<.<.@.f d d d d d d d d r r a a a ",
"a a a a a a 8 6 6 6 6 6 6 6 6 6 6 6 6 6 8 p p p a a a a r a a a 0 Q <.1.W # - ; * * ; E  .<.<.<.,.J d d d d d d d d d a a a a a ",
"a a a a a p p 8 6 6 6 6 6 6 6 6 6 6 6 8 p a r a a a a a a a a a p z o.e.= * * * ; , X.<.<.<.<.<.@.F s F d d d d d d s p p p 0 s ",
"a a p a a a a a 8 6 6 6 6 6 6 6 6 6 6 r a a a a a a a a a a a r p 0 V - * * * < T 1.<.<.<.<.<.#.G d F s d d d d s s p p p p s p ",
"a a a a a a a a p r 6 6 6 6 6 6 6 6 r a p a a a a a a r a a a a p p a V & $ T | <.<.<.<.<.;.+.G d d s s d d d s s p p p s d s d ",
"F a a a a a p a p a r 8 6 6 6 6 6 r a a a a a a a a 8 8 6 8 8 p a p a p y b +.%.&.&.&.%.O.H d d d d d s d d d s p p p s s d d d ",
"d d s 8 0 p p a a a a a r 8 8 8 p a a a a a a a r 6 6 6 6 6 6 6 r p a a a a 0 q q w q q a d d d d d d d d d F p p p s d d d d d ",
"d d d s p p p p a p a a r p p p a r a a a p a r 6 6 6 6 6 6 6 6 6 r a a a a p p a a a a a a d d d d d d s s p p p s d d d d d d ",
"d d d d s p p p a a a a a a p a a a a a a a 8 6 6 6 6 6 6 6 6 6 6 6 8 a a a a a a a a a a a r d d d d s s p p p s F d d d d d d ",
"d d d d s p a s a r a p a a a a a a a a r r 6 6 6 6 6 6 6 6 6 6 6 6 6 8 a r a a a a a a a a r a p s s p p p p p s s d d d d d d ",
"d d d d d a a a a a a a a a r a a a p p r 6 6 6 6 6 6 6 6 6 6 6 6 6 6 6 8 p a a a a a a a a a a a a a a p p p p s s d d d d d d ",
"d d d d s a r a a a a a a a a a a a a r 6 6 6 6 6 6 6 6 6 6 6 6 6 6 6 6 6 8 a a a a a p a a a a a p a p p s p p s s d d d d d d ",
"d d d s r r a a a a a a a a a a p a r 6 6 6 6 6 6 6 6 6 6 6 6 6 6 6 6 6 6 6 r p p a a a a a a a a a p p a p p p p s d d d d d d ",
"d d s a a a a a a a r a r a a a p p 6 6 6 6 6 6 6 6 6 6 6 6 6 6 6 6 6 6 6 6 6 r a a a a a r a a a a 8 6 6 8 8 p p p s d d d d d ",
"d a a a a a a a a a a a a a a a p 8 6 6 6 6 6 6 6 6 6 6 6 6 6 6 6 6 6 6 6 6 6 6 r a a a a a p p p 8 6 6 6 6 6 6 p p p s d d d d ",
"a a a a a a a a a a a a a a a a 8 6 6 6 6 6 6 6 6 6 6 6 6 6 6 6 6 6 6 6 6 6 6 6 8 p p a a a p r 8 6 6 6 6 6 6 6 6 p p p s d d d ",
"a a a a r a s s d s a r a a a a 6 6 6 6 6 6 6 6 6 6 6 6 6 6 6 6 6 6 6 6 6 6 6 6 6 r a a a a p 8 6 6 6 6 6 6 6 6 6 6 p p p p p p ",
"a a a a a s d d d d d a a a r r 6 6 6 6 6 6 6 6 6 6 6 6 6 6 6 6 6 6 6 6 6 6 6 6 6 r a a p a 8 6 6 6 6 6 6 6 6 6 6 6 6 p p s p p "
};
