/* XPM */
static char *_ef1076febe547f3e6ff6735cc6b68e2d3TJKUfng4HXBoFx[] = {
/* columns rows colors chars-per-pixel */
"64 64 112 2 ",
"   c #6CB33E",
".  c #7EB636",
"X  c #72B43B",
"o  c #78B539",
"O  c #7CBA3B",
"+  c #2CA757",
"@  c #2EA857",
"#  c #24A65B",
"$  c #29A759",
"%  c #25AA5D",
"&  c #2CAD5C",
"*  c #34A955",
"=  c #3CAA51",
"-  c #30AF5C",
";  c #2EB25F",
":  c #33B25D",
">  c #3AB35A",
",  c #27AE60",
"<  c #27B061",
"1  c #28B162",
"2  c #29BA66",
"3  c #2ABD68",
"4  c #31BC64",
"5  c #38BE61",
"6  c #42AB4F",
"7  c #4DAD4A",
"8  c #56AE47",
"9  c #5BAF45",
"0  c #50AE48",
"q  c #4DB34E",
"w  c #5EB043",
"e  c #54B64D",
"r  c #5AB74B",
"t  c #56BA4E",
"y  c #42B456",
"u  c #4BB552",
"i  c #4EBF57",
"p  c #63B141",
"a  c #6CB640",
"s  c #63B847",
"d  c #6CBA43",
"f  c #76BF41",
"g  c #53C054",
"h  c #5BC050",
"j  c #6EC247",
"k  c #74C243",
"l  c #B6BF1E",
"z  c #94BA2D",
"x  c #9BBC2B",
"c  c #85B732",
"v  c #8AB731",
"b  c #84BC37",
"n  c #89BD35",
"m  c #82BC39",
"M  c #94BE30",
"N  c #A4BC26",
"B  c #AABD23",
"V  c #A2BE28",
"C  c #B1BF20",
"Z  c #BCC21D",
"A  c #9DC12D",
"S  c #97C533",
"D  c #ACC226",
"F  c #A5C12A",
"G  c #AEC628",
"H  c #B4C423",
"J  c #DCC60F",
"K  c #DFC80E",
"L  c #C7C217",
"P  c #CCC416",
"I  c #C3C31A",
"U  c #C9C519",
"Y  c #CAC518",
"T  c #C4C81D",
"R  c #D2C413",
"E  c #D6C511",
"W  c #D4C513",
"Q  c #D7C712",
"!  c #D3C614",
"~  c #D8C711",
"^  c #DBC710",
"/  c #D3C916",
"(  c #DDC810",
")  c #DCC911",
"_  c #EFC907",
"`  c #E4C70B",
"'  c #E2C70C",
"]  c #E3C70C",
"[  c #E0CA0F",
"{  c #E4C90C",
"}  c #EAC809",
"|  c #E8C80A",
" . c #E8C90A",
".. c #EAC90A",
"X. c #ECC908",
"o. c #ECCA09",
"O. c #F7CB03",
"+. c #F3CA05",
"@. c #F0CA07",
"#. c #F2CA06",
"$. c #F4CA05",
"%. c #F4CB05",
"&. c #F5CB05",
"*. c #F6CA04",
"=. c #F7CB04",
"-. c #F9CB02",
";. c #F8CB03",
":. c #FACB02",
">. c #FCCB01",
",. c #FECC00",
"<. c #FFCC00",
"1. c #FCCC02",
/* pixels */
"1 1 1 2 3 3 3 3 3 3 3 2 1 1 1 , # # # # # # # # # # # # # # # v } z # # # # # # # , , 1 1 % # # # # # # # # # # # # # # 1 , 1 1 ",
"1 1 2 2 3 3 3 3 3 3 3 3 2 1 1 1 # # # # # # # # # # # # # # 0 } -.} 8 # # # # # # , 1 1 % # # # # # # # # # # # # # # # % 1 1 1 ",
"1 2 3 3 3 3 3 3 3 3 3 3 2 2 1 1 , # # # # # # # # # # # # # z ,.<.<.N # # # # # % , 1 , # # # # # # # # # # # # # # # # # , 1 1 ",
"2 3 3 3 3 3 3 3 3 3 3 3 3 2 2 1 , # # # # # # # # # # # # * W <.-.<.W = # # # # , 1 , % # # # # # # # # # # # # # # # # # , 1 1 ",
"3 3 3 3 3 3 3 3 3 3 3 3 3 3 3 1 1 , # # # # # # # # # # # 0 @.<.<.<.*.p # # # & 1 1 1 , # # # # # # # # # # # # # # # # # # 1 2 ",
"3 3 3 3 3 3 3 3 3 3 3 3 3 3 3 3 , 1 , # # # # # # # # # # . <.<.<.<.<.v # # # 1 1 1 1 , # # # # # # # # # # # # # # # # # # 1 3 ",
"3 3 3 3 3 3 3 3 3 3 3 3 3 3 3 3 2 , , , # # # # # # # # # B -.<.-.<.<.l # % 1 1 1 1 1 1 , # # # # # # # # # # # # # # # # 1 2 3 ",
"3 3 3 3 3 3 3 3 3 3 3 3 3 3 3 3 2 , , , # # # # # # # # @ P <.<.<.<.<.~ * 1 1 1 2 2 1 1 , # # # # # # # # # # # # # # # 1 1 2 3 ",
"3 3 3 3 3 3 3 3 3 3 3 3 3 3 3 3 1 1 1 1 1 , # # # # # # = { ,.,.<.-.,...u 1 2 3 3 3 3 2 1 , # # # # # # # # # # # # # , , 1 1 3 ",
"3 3 3 3 3 3 3 3 3 3 3 3 3 3 3 3 1 1 1 1 1 , , # # # # # 8 *.,.,.<.<.,.-.s 2 3 3 3 3 3 3 2 1 , # # # # # # # # # # # , 1 1 1 1 2 ",
"3 3 3 3 3 3 3 3 3 3 3 3 3 3 3 1 1 1 1 1 1 1 1 , # # # #   ,.,.,.,.,.,.,.k 3 3 3 3 3 3 3 3 2 1 , # # # # # # # # # , 1 1 1 1 1 1 ",
"1 3 3 3 3 3 3 3 3 3 3 3 3 3 1 1 1 1 1 1 1 1 1 1 , # # # c ,.,.,.,.,.,.,.S 3 3 3 3 3 3 3 3 2 2 , 1 # # # # # # # , 1 1 1 1 1 1 1 ",
"1 1 3 3 3 3 3 3 3 3 3 3 3 2 1 1 1 1 1 1 1 1 1 1 < 1 # # V ,.,.,.,.,.,.,.G 3 3 3 3 3 3 3 3 3 2 2 1 < % # # # # , 1 , % # # # , 1 ",
"< 1 2 3 3 3 3 3 3 3 3 3 1 1 1 1 1 1 1 1 1 1 1 1 1 1 1 1 H ,.,.,.,.,.,.,.T 4 3 3 3 3 3 3 3 3 2 2 1 1 1 < , , 1 1 , # # # # # # # ",
"# , 1 2 3 3 3 3 3 3 2 1 1 1 , % # # $ 1 1 1 1 1 1 1 1 1 U ,.,.,.,.,.,.,./ 4 3 3 3 3 3 3 3 3 3 1 1 1 1 1 1 1 1 # # # # # # # # # ",
"# # < < 1 2 3 3 3 2 1 1 1 % # # # # # $ 1 1 1 1 1 1 1 > Q ,.,.,.,.,.,.,.K g 3 3 3 3 3 3 3 3 2 , 1 1 1 1 1 1 % # # # # # # # # # ",
"# # # , < 1 1 1 1 1 1 1 % # # # # @ = $ % 1 1 1 1 1 1 y { ,.,.,.,.,.,.,.{ i 3 3 3 3 3 3 3 4 u > 1 1 1 1 < # # # # # # # # # # # ",
"# # # # , < 1 1 1 1 1 # # # # # # x ] Z p - 1 1 1 1 1 u o.,.,.,.,.,.,.,.@.t 3 3 3 3 3 4 d H ..D , 1 1 1 # # # # # # # # # # # # ",
"# # # # # < 1 1 1 1 % # # # # # # z ,.,.*.C e , 1 1 < r *.,.,.,.,.,.,.,.=.s 1 2 3 3 i G *.,.,.F 1 1 1 # # # # # # # # # # # # # ",
"# # # # # # < 1 1 , % # # # # # # 7 o.,.,.,.] O 1 1 < s *.,.,.,.,.,.,.,.,.d 1 2 2 f ( ,.,.,.@.r 1 1 % # # # # # # # # # # # # # ",
"# # # # # # # , 1 1 % # # # # # # # x ,.,.,.,.O.V > < a ,.,.,.,.,.,.,.,.,.O , > x *.,.,.,.,.N 1 1 % # # # # # # # # # # # # # # ",
"# # # # # # # # , 1 , # # # # # # # 6 W ,.,.,.,.<.I 7 X ,.,.,.,.,.,.,.,.,.. y Z ,.,.,.,.,.J u 1 , # # # # # # # # # # # # # # # ",
"# # # # # # # # % 1 1 % # # # # # # # p @.,.,.,.<.<.W l ,.,.,.,.,.,.,.,.,.Z ! ,.,.,.,.,.=.k 1 1 # # # # # # # # # # # # # # # # ",
"# # # # # # # # # , 1 1 % # # # # # # # M ,.,.,.<.<.<.,.,.,.,.,.,.,.,.,.,.,.,.,.,.,.,.,.V & 1 # # # # # # # # # # # # # # # # # ",
"# # # # # # # # # % 1 1 , # # # # # # & > H ,.<.<.,.,.,.,.,.,.,.,.,.,.,.,.,.,.,.,.,.,.I > 1 , # # # # # # # # # # # # # # # # # ",
"# # # # # # # # # # 1 1 1 & # # # # , , 1 u W <.,.,.,.,.,.,.,.,.,.,.,.,.,.,.,.,.,.,.] e 1 1 1 # # # # # # # # # # # # # # # # # ",
"# # # # # # # # # % 1 1 < 1 , & 1 1 1 1 & @   o.,.,.,.,.,.,.,.,.,.,.,.,.,.,.,.,.,.*.o : 1 1 , # # # # # # # # # # # # # # # # # ",
"# # # # # # # # # & 1 : > e s k n M V H L P W *.,.,.,.,.,.,.,.,.,.,.,.,.,.,.,.,.,.-.W P U H V x c X w 7 6 * $ # # # # # # # # # ",
"# # # # # @ 6 9 . x H W { *.=.,.,.,.,.,.,.,.,.,.,.,.,.,.,.,.,.,.,.,.,.,.,.,.,.,.,.,.,.,.,.,.,.,.,.,.-.@.] W Z x . w 6 @ # % # # ",
"# # * p x I ] *.,.,.,.,.,.,.,.,.,.,.,.,.,.,.,.,.,.,.,.,.,.,.,.,.,.,.,.,.,.,.,.,.,.,.,.,.,.,.,.,.,.,.,.,.,.,.,.,.,.O.` I z p * # ",
"* c W -.,.,.,.,.,.,.,.,.,.,.,.,.,.,.,.,.,.,.,.,.,.,.,.,.,.,.,.,.,.,.,.,.,.,.,.,.,.,.,.,.,.,.,.,.,.,.,.,.,.,.,.,.,.,.,.,.,.=.W c ",
"B -.,.,.,.,.,.,.,.,.,.,.,.,.,.,.,.,.,.,.,.,.,.,.,.,.,.,.,.,.,.,.,.,.,.,.,.,.,.,.,.,.,.,.,.,.,.,.,.,.,.,.,.,.,.,.,.,.,.,.,.,.,.-.",
"B ,.,.,.-.<.<.<.,.,.,.,.<.<.<.-.,.,.,.,.,.,.,.,.,.,.,.,.,.,.,.,.,.,.,.,.,.,.,.,.,.,.,.,.,.,.,.,.,.,.,.,.,.,.,.,.,.,.,.,.,.,.,.,.",
"* v W -.,.<.<.<.,.,.,.,.<.<.<.<.,.,.,.,.,.,.,.,.,.,.,.,.,.,.,.,.,.,.,.,.,.,.,.,.,.,.,.,.,.,.,.,.,.,.,.,.,.,.,.,.,.,.,.,.,.-.W v ",
"# # = X N P o.-.,.,.<.,.-.,.<.<.,.,.,.,.,.,.,.,.,.,.,.,.,.,.,.,.,.,.,.,.,.,.,.,.,.,.,.,.,.,.,.,.,.,.,.,.,.,.,.,.,.-...P N   = # ",
"# # , < , 4 u s n N I W ` *.<.-.,.,.,.,.,.,.,.,.,.,.,.,.,.,.,.,.,.,.,.,.,.,.,.,.,.,.,.,.,.,.,.,.,.,.,.*...W I N v   7 * # # # # ",
"# , 1 , 1 1 1 1 1 # $ * 6 8   . z V H I P ~ J -.,.,.,.,.,.,.,.,.,.,.,.,.,.,.,.,.,.%.{ W / I H F M m a r u > & < # # # # # # # # ",
", 1 1 1 1 1 1 1 & # # # # # # # # # & < : > X _ ,.,.,.,.,.,.,.,.,.,.,.,.,.,.,.,.,.*.O > : : ; 1 2 2 2 2 1 1 1 1 & # # # # # # # ",
"1 1 1 1 1 1 1 , # # # # # # # # # # # % 1 u W ,.,.,.,.,.,.,.,.,.,.,.,.,.,.,.,.,.,.,.( q 1 1 3 3 3 3 3 3 2 1 1 1 & , # # # # # 1 ",
", 1 1 1 1 1 , # # # # # # # # # # # # # = H ,.,.,.,.,.,.,.,.,.,.,.,.,.,.,.,.,.,.,.,.,.T > 1 3 3 3 3 3 3 3 2 1 1 1 1 1 1 1 1 1 1 ",
"1 1 1 1 1 , # # # # # # # # # # # # # $ v <.<.<.,.,.,.,.,.,.,.,.,.,.,.,.,.,.,.,.,.,.,.,.A 3 3 3 3 3 3 3 3 3 2 , 1 1 1 1 1 1 1 1 ",
"1 1 1 1 1 , # # # # # # # # # # # # # p o.<.<.<.,.,.] Z ,.,.,.,.,.,.,.,.,.I ~ ,.,.,.,.,.%.k 3 3 3 3 3 3 3 3 3 3 1 1 1 1 1 1 1 1 ",
"1 1 1 1 1 # # # # # # # # # # # # # = ! <.<.<.<.,.P e X ,.,.,.,.,.,.,.,.,.b e I ,.,.,.,.,.( g 3 3 3 3 3 3 3 3 3 2 , 1 1 1 1 1 1 ",
"1 1 1 , , # # # # # # # # # # # # $ z ,.<.-.<.O.B y 1 a ,.,.,.,.,.,.,.,.,.f 1 > V *.,.,.,.,.S 3 3 3 3 3 3 3 3 3 2 2 1 1 1 1 1 , ",
"1 1 1 1 # # # # # # # # # # # # # 7 } <.<.<.] O : 1 1 s =.,.,.,.,.,.,.,.,.d 1 1 1 k { ,.,.,.@.h 3 3 3 3 3 3 3 3 3 3 1 1 1 1 1 1 ",
"1 1 1 1 , # # # # # # # # # # # # z <.<.O.C e < 1 1 1 r @.,.,.,.,.,.,.,.=.s 1 1 1 3 i G *.,.,.S 3 3 3 3 3 3 3 3 3 3 3 1 1 1 1 1 ",
"1 1 1 1 1 # # # # # # # # # # # # N @.L X ; < < 1 1 1 u o.<.,.,.,.,.,.,.*.r 1 1 2 3 3 5 j T ..F 3 3 3 3 3 3 3 3 3 3 3 1 1 1 1 1 ",
"1 , 1 1 1 1 # # # # # # # # # # # = 7 @ , 1 1 1 1 1 1 y ] <.,.,.,.,.,.,...u 1 1 1 3 3 3 3 5 g g 3 3 3 3 3 3 3 3 3 3 2 1 , 1 1 1 ",
"1 1 1 1 1 1 , , # # # # # # # # # # # % 1 , 1 1 1 1 1 > ~ ,.,.,.,.,.,.,.{ > 1 1 , 3 3 3 3 3 3 3 3 3 3 3 3 3 3 3 3 3 1 1 1 1 1 1 ",
"1 1 1 1 , 1 1 1 # # # # # # # # # # # 1 1 1 1 1 1 1 1 1 U ,.,.,.,.,.,.,.! > 1 1 , , 3 3 3 3 3 3 3 3 3 3 3 3 3 3 3 1 , 1 1 1 1 1 ",
"1 1 , 1 1 1 1 1 , , # # # # # # # # , 1 1 1 1 , 1 1 1 1 H ,.,.,.,.,.,.,.U 1 1 1 1 1 1 3 3 3 3 3 3 3 3 3 3 3 3 3 2 1 1 1 2 3 3 3 ",
"3 1 1 1 1 1 1 1 1 1 , , # # # # # , 1 , 1 1 1 1 1 1 , $ V ,.,.,.,.,.,.-.C 1 1 1 1 1 1 , 3 3 3 3 3 3 3 3 3 3 3 2 1 1 1 2 3 3 3 3 ",
"3 3 2 1 1 1 , 1 1 1 1 1 , , # # 1 1 1 1 1 1 1 , , # # # v ,.,.,.,.,.,.,.M 1 1 1 1 1 1 1 1 3 3 3 3 3 3 3 3 3 2 1 1 1 2 3 3 3 3 3 ",
"3 3 3 2 1 1 1 1 1 1 1 1 , , , , , 1 1 1 , 1 1 , # # # #   ,.,.,.,.,.,.,.m 1 1 1 1 1 1 1 1 1 2 3 3 3 3 2 2 2 1 1 1 1 3 3 3 3 3 3 ",
"3 3 3 3 2 1 1 1 , 1 1 1 1 1 , , 1 1 1 1 1 1 , # # # # # 8 *.,.,.,.,.,.=.s 1 1 1 1 1 1 1 1 1 1 2 3 3 3 2 1 1 1 1 2 3 3 3 3 3 3 3 ",
"3 3 3 3 2 1 1 1 1 1 1 1 1 1 1 1 1 1 1 1 , , # # # # # # = { ,.,.,.,.,...y 1 1 1 1 1 1 , 1 1 1 1 1 2 2 1 1 1 1 1 2 3 3 3 3 3 3 3 ",
"3 3 3 3 2 1 1 1 1 1 1 1 1 1 1 1 1 1 , , , # # # # # # # * L <.<.,.,.,.W * 1 1 1 1 1 1 1 1 1 1 1 1 1 , , 1 1 , , 2 3 3 3 3 3 3 3 ",
"3 3 3 3 1 1 1 1 1 1 1 1 , 1 1 1 1 1 1 , # # # # # # # # # B <.<.,.,.,.C $ % 1 1 1 , 1 1 1 1 1 1 1 , 1 , 1 1 1 , 2 3 3 3 3 3 3 3 ",
"3 3 3 2 1 1 1 1 1 1 1 1 1 1 1 1 < 1 , # # # # # # # # # # . <.<.,.,.,.v # # , , 1 1 1 1 1 1 , 1 1 1 , , 1 1 , , 1 2 3 3 3 3 3 3 ",
"3 3 2 1 1 1 1 1 1 1 1 1 1 1 1 1 < < # # # # # # # # # # # 8 @.<.,.,.=.w # # # , 1 1 1 1 1 1 1 1 1 1 , # # , , , , 1 1 3 3 3 3 3 ",
"3 2 1 1 1 1 1 1 1 1 1 1 , 1 1 1 , # # # # # # # # # # # # * R <.,.,.~ = # # # # , , , 1 1 1 1 , 1 , # # # # # # , 1 , 2 3 3 3 3 ",
"1 1 1 1 1 1 1 1 1 1 1 1 1 1 1 1 % # # # # # # # # # # # # # x <.,.,.N # # # # # , , , , 1 , 1 , , # # # # # # # , , 1 , 2 3 3 3 ",
"1 1 1 1 1 1 2 2 2 1 1 1 1 1 1 1 # # # # # # # # # # # # # # 0 o.,.@.9 # # # # # # , 1 1 1 1 , # # # # # # # # # # # , , 1 1 1 1 ",
"1 1 , 1 1 3 3 3 3 3 2 1 1 1 , , # # # # # # # # # # # # # # $ z *.x $ # # # # # , , , 1 1 1 # # # # # # # # # # # # , , 1 1 1 , "
};
