/* XPM */
static char *_34e04366ee148578727d7a98299c51b7HlONrPX1TOdTm28[] = {
/* columns rows colors chars-per-pixel */
"64 64 78 1 ",
"  c #6AB23D",
". c #7CB537",
"X c #73B33A",
"o c #78B438",
"O c #2DA757",
"+ c #2FA856",
"@ c #24A65B",
"# c #29A759",
"$ c #25AA5D",
"% c #28A85B",
"& c #34A955",
"* c #3BAA51",
"= c #2EB25F",
"- c #33B25D",
"; c #3CB459",
": c #3EBE5E",
"> c #27AE60",
", c #27B061",
"< c #28B162",
"1 c #2ABA66",
"2 c #2ABD68",
"3 c #34BD63",
"4 c #39BE60",
"5 c #44AB4E",
"6 c #4EAD49",
"7 c #57AE46",
"8 c #5AAF44",
"9 c #50AD48",
"0 c #4DB24E",
"q c #52B54E",
"w c #52B84F",
"e c #44B455",
"r c #4CB551",
"t c #4CBB55",
"y c #46BE5A",
"u c #50B550",
"i c #50B951",
"p c #52B950",
"a c #53B950",
"s c #54BC51",
"d c #54BF53",
"f c #50BF55",
"g c #52BF54",
"h c #63B041",
"j c #60B042",
"k c #64B040",
"l c #B4BE1F",
"z c #B7BF1E",
"x c #B9BF1D",
"c c #91B82E",
"v c #94B92C",
"b c #96B92C",
"n c #9BBA29",
"m c #9EBB28",
"M c #82B633",
"N c #86B632",
"B c #88B731",
"V c #A1BB27",
"C c #A2BB27",
"Z c #ABBD23",
"A c #A8BC24",
"S c #D9C60F",
"D c #DCC60E",
"F c #C5C118",
"G c #D1C413",
"H c #D5C411",
"J c #D0C314",
"K c #EEC907",
"L c #E4C70B",
"P c #E2C60C",
"I c #EAC809",
"U c #E8C80A",
"Y c #F3CA05",
"T c #F6CA04",
"R c #F6CB04",
"E c #FACB02",
"W c #FDCC01",
"Q c #FFCC00",
/* pixels */
"<<<122222221<<<>@@@@@@@@@@@@@@@*5#@@@@@@@>><<>@@@@@@@@@@@@@@<<<<",
"<<11222222221<<<@@@@@@@@@@@@@@&99*@@@@@@@><<@@@@@@@@@@@@@@@@$><<",
"<1222222222221<<>@@@@@@@@@@@@#5966#@@@@@@<>>@@@@@@@@@@@@@@@@@$<<",
"122222222222221>>@@@@@@@@@@@@O6669&@@@@@><<>@@@@@@@@@@@@@@@@@$<<",
"222222222222222<<>@@@@@@@@@@@&96695@@@@@<<<>@@@@@@@@@@@@@@@@@@<1",
"2222222222222221<<>@@@@@@@@@@*96995@@@@><<>>@@@@@@@@@@@@@@@@@>12",
"22222222222222221>>>@@@@@@@@#599696#@><<<<<<>@@@@@@@@@@@@@@@$>11",
"2222222222222222<<><@@@@@@@@O696966+@<<<11<<>@@@@@@@@@@@@@@@>>12",
"22222222222222221<<<<>@@@@@@+666669*<>122221>>@@@@@@@@@@@@$>,<12",
"2222222222222222<<<<>>>@@@@@*699696e<12222222>>@@@@@@@@@@@>,,,,1",
"1222222222222121<<<<<<<>@@@@*99699pe1222222221<>@@@@@@@@@>,,<<,<",
"<22222222222211><<<<<<<<>@@@5966qqqt32222222222<,@@@@@@@,>,,<<,<",
"<<222222222211><<<<<<<<<><>@666quwpg32222222222<,,>@>@@>>>@@>>>>",
"<<1222222222<<<><<<<<<<<><><rqqpwqus322222222221,,,,>>>>>@@@@@@@",
"@><12222221<<>>$@@@<<><<<<>-uwqwqwqs32222222222<<<,<,<,@@@@@@@@@",
"@@>>112211<<<>@@@@@@<<<<<<<-uqqqqqqw4222222222<<<<<<>>>@@@@@@@@@",
"@@@$<<<<<<<<$@@@@@@@>><<<<-ewqwqwqwwe422222211<<,<<<>@@@@@@@@@@@",
"@@@@><<<<><@@@@@@@@@@>><;rwwqqqqqqwuwwf:22221<<<<<<<@@@@@@@@@@@@",
"@@@@$$<<<<$@@@@@@@@@@@-epqqqwqq98q9uwwpsf42<<<<<,><>@@@@@@@@@@@@",
"@@@@@@<<<<$@@@@@@@@@@&6wqqqqq9996699qqqpsfe<<<<<,>>@@@@@@@@@@@@@",
"@@@@@@@,<<$@@@@@@@@@&66pqqqq666666666upqpque<><><>@@@@@@@@@@@@@@",
"@@@@@@@@><>@@@@@@@@+699qqq966666666696qquuqu;<<<>@@@@@@@@@@@@@@@",
"@@@@@@@@$<<$@@@@@@O696pqq9667ocmmb.86699qwqqq;<>@@@@@@@@@@@@@@@@",
"@@@@@@@@@><>$@@@@@599pqq667cHTQQQQTDmh69qwwuwr<$@@@@@@@@@@@@@@@@",
"@@@@@@@@@$<<<%@@@&99qqq66 FEQQQQQQQQQHX66rpqqp*@@@@@@@@@@@@@@@@@",
"@@@@@@@@@@<<<%@@#5qpqq66hGQQQQQQQQQQQQLX66qqqqrO@@@@@@@@@@@@@@@@",
"@@@@@@@@@$<<<<>>-uuqq667xQQQQQQQQQQQQQQHh69pqqq*@@@@@@@@@@@@@@@@",
"@@@@@@@@@$<<<<--eqwq666cQQQQQQQQQQQQQQQQA669wqq5OO##@@@@@@@@@@@@",
"@@@@@@@O&;eerrqqqqq9667GQQQQQQQQQQQQQQQQPh66qqqq666555*O%%@@@>@@",
"@@@#&5560qwwwwqqwqq966XYQQQQQQQQQQQQQQQQQN667qqq66669966955*@@@@",
"@&569996qqqqqqqqqw7666BQQQQQQQQQQQQQQQQQQA699qqqq9696696666665&@",
"&66696qqqwqwqwqwqqq666CQQQQQQQQQQQQQQQQQQl6699qqu966966666666665",
"*9969qwqqquqqqqqqqq666VQQQQQQQQQQQQQQQQQQx666qwwwqq9996696666995",
"#&667qqqqqqqwqwwpqq666bQQQQQQQQQQQQQQQQQQZ6669qqqwqq9969696695*O",
"@@O;eeuwwwuqqqpuqqqq66.RQQQQQQQQQQQQQQQQQB696qqpqqqqq9999665&O#@",
"@@%<<<<;;e566699qqqp668SQQQQQQQQQQQQQQQQIk69qqqqqqqure5*&O@@@@@@",
"@>>><<<<>%@%#O&&5qqqq96mQQQQQQQQQQQQQQQQx999qwqr;--=%<<%@@@@@@@@",
">><<<<<<%@@@@@@@&6qqqq67JQQQQQQQQQQQQQQLk6qwqwq;1111<<<<$@@@@@@@",
"<<<<<<<>@@@@@@@@@669qqq6XDQQQQQQQQQQQQKN99qqwqt322222<<<<>@@@@@<",
"<<<<<<>@@@@@@@@@@*666qq06XGQQQQQQQQQQPM69qwqwwy2222222<<<<<<<<<<",
"<<<<<>@@@@@@@@@@@%5999wqq6kAIQQQQQQKx 99puwqpg322222222><<<<<<<<",
"><<<<>@@@@@@@@@@@@+669qqu969 clxxxn 999pqqwugy2222222221<<<<<<<<",
"<<<<>@@@@@@@@@@@@@@*669qqw89666999669qqqqwssy222222222221<<><<><",
"<<<<>@@@@@@@@@@@@@@@*69wqrpq66666666qqwqwssy32222222222221<<<<<<",
"<<<<$@@@@@@@@@@@@@@@$*9quwwqu99969qqqqqwqsy222222222222222<<<<<<",
"<<<<>@@@@@@@@@@@@@@@@@;puuqqaqqqqqqqqwwwry22222222222222222<<><<",
"<<<<<@@@@@@@@@@@@@@@@>>,erquqaqqqqwwqque3222222222222222222<<><<",
"<<<<<>@@@@@@@@@@@@@@><<<<-euqqaqqpwque-><222222222222222221<<<<<",
"><<<<<>@@@@@@@@@@@@@>,<<<<<-uqpqqqqq-<<<<12222222222222222<<<<<<",
"<<<<<<<<>@@@@@@@@@@><,<,<<<=uqqqqqqu-<<<<<1222222222222221<<<<<<",
"<><<<<<>>>@@@@@@@@><<<<<>><>uuqqqpuu-><<<<<2222222222222<<<>1222",
"21<<<<<<>>>>@@@@>>><<<<<>>>>599qqquu-<<<<<<<122222222221<<<12222",
"221<<<<<<<<<>>@@><<<<<>><%@#5696ququ<<<<<<,<<2222222221><>122222",
"2221<<<<<<<<>>>><<<<<>>>@%@@*6699qur,<<<<<<<<<12222221<<<1222222",
"2222<<<<><><<<<<<<<<<<>@@@@@*666699e<<<<<<<<<<<12222<<<<12222222",
"22222<<<<<<<<<<<<<<<>>@@@@@@+666999*<<<<,<<<,<<,<1<<<><<12222222",
"22222<<<<<<<<<<<<<<>>>@@@@@@O669666+$$<<<<<<<<<<<<<<<<<<12222222",
"2222<<<<<<<<<><<><<>@@@@@@@@@696696+$@<>,<<,<,<<<<<,<<<<<2222222",
"2221<<<<<><<><<<>>>@@@@@@@@@@599695%@@><<<<<<,<,<<>,<<$<<1222222",
"221<<<<<<<<<<<<<>>@@@@@@@@@@@*96995>@@@><,<<<<<<<<@@@>$$<<122222",
"21>><<<<<<<<<<<<>@@@@@@@@@@@@O6666&>@@@@>>,<<<,><@@@@@@@<<>12222",
"<<<<<<<<<><<<<<<>@@@@@@@@@@@@#5666+@@@@@>,<<<,,>>@@@@@@@<$<<<222",
"<<<<><122<<<<<<<@@@@@@@@@@@@@@*665@@@@@@@><<<,>@@@@@@@@@@@<$<<<<",
"<<<<<222222<><<>@@@@@@@@@@@@@@O55O@@@@@@@><<<<>@@@@@@@@@@@$<<<<<"
};
