/* XPM */
static char *_2aa26eef9894d38c8ee5b33f1a7e219eqNhMxqM8E2y5UqC[] = {
/* columns rows colors chars-per-pixel */
"64 64 19 1 ",
"  c None",
". c #3687BD",
"X c #3B93CD",
"o c #428EC1",
"O c #409FDD",
"+ c #419FDD",
"@ c #4CA5DF",
"# c #53A0D3",
"$ c #6BACD7",
"% c #45ABEE",
"& c #4AB7FF",
"* c #64B1E3",
"= c #73BEF0",
"- c #6BC4FF",
"; c #D9E8F2",
": c #DBEDF8",
"> c #F3F9FC",
", c #F3FAFF",
"< c white",
/* pixels */
"                                                                ",
"                                                                ",
"                                                                ",
"                                                                ",
"                                                                ",
"                                                                ",
"                                                                ",
"                                                                ",
"                                                                ",
"                                                                ",
"                                                                ",
"                                                                ",
"                                                                ",
"                                                                ",
"                                                                ",
"                                                                ",
"                                                                ",
"                                                                ",
"                        <<<<<<<<<<<<<<<<<                       ",
"                       <<<<<<<<<<<<<<<<<<<                      ",
"                      <<<<<<<<<<<<<<<<<<<<<                     ",
"                     <<<>*++++++%&&&&&&-><<<                    ",
"                    <<<>*+++++++%&&&&&&&-><<<                   ",
"                   <<<>*++++++++%&&&&&&&&-><<<                  ",
"                  <<<>*+++++++++%&&&&&&&&&-><<<                 ",
"                 <<<>*++++++++++%&&&&&&&&&&-><<<                ",
"                <<<>*+++++++++++%&&&&&&&&&&&-><<<               ",
"               <<<>*++++++++++++%&&&&&&&&&&&&-><<<              ",
"               <<<$XXXXXXXXXXXXX+%%%%%%%%%%%%%=<<<              ",
"               <<<;o............X++++++++++++@:<<<              ",
"                <<<;o...........X+++++++++++@:<<<               ",
"                 <<<;o..........X++++++++++@:<<<                ",
"                  <<<;o.........X+++++++++@:<<<                 ",
"                   <<<;o........X++++++++@:<<<                  ",
"                    <<<;o.......X+++++++@:<<<                   ",
"                     <<<;o......X++++++@:<<<                    ",
"                      <<<;o.....X+++++@:<<<                     ",
"                       <<<;o....X++++@:<<<                      ",
"                        <<<;o...X+++@:<<<<                      ",
"                         <<<;o..X++@:<<<<                       ",
"                          <<<;o.X+@:<<<<                        ",
"                           <<<;oX@:<<<<                         ",
"                            <<<;#:<<<<                          ",
"                             <<<<<<<<                           ",
"                              <<<<<<                            ",
"                               <<<                              ",
"                                                                ",
"                                                                ",
"                                                                ",
"                                                                ",
"                                                                ",
"                                                                ",
"                                                                ",
"                                                                ",
"                                                                ",
"                                                                ",
"                                                                ",
"                                                                ",
"                                                                ",
"                                                                ",
"                                                                ",
"                                                                ",
"                                                                ",
"                                                                "
};
