/* XPM */
static char *_e0b05e72b564152bdf6b7288eef2a19HsVjs4t8suNLXE2g[] = {
/* columns rows colors chars-per-pixel */
"64 64 54 1 ",
"  c None",
". c #3687BD",
"X c #3688BF",
"o c #3B88BB",
"O c #4A8EB7",
"+ c #408ABA",
"@ c #458CB8",
"# c #4F90B5",
"$ c #5091B7",
"% c #5591B4",
"& c #5A93B2",
"* c #5F95B1",
"= c #6999AE",
"- c #6F9AAD",
"; c #749CAB",
": c #799EAA",
"> c #6497B0",
", c #7EA0A8",
"< c #378AC1",
"1 c #388BC3",
"2 c #388DC5",
"3 c #398EC7",
"4 c #3A90C9",
"5 c #3A91CB",
"6 c #3B93CD",
"7 c #3C94CF",
"8 c #3C96D1",
"9 c #3D97D3",
"0 c #3E99D5",
"q c #3E9AD7",
"w c #3F9CD9",
"e c #4993C2",
"r c #4995C4",
"t c #409DDB",
"y c #419FDD",
"u c #83A2A7",
"i c #89A4A6",
"p c #8AA5A7",
"a c #8BA7A9",
"s c #8EABAD",
"d c #90ACAE",
"f c #91AEB0",
"g c #92AFB2",
"h c #93B0B2",
"j c #94B2B4",
"k c #95B3B5",
"l c #97B5B7",
"z c #99B8BB",
"x c #9AB9BB",
"c c #9BBABC",
"v c #9DBCBE",
"b c #9EBEC0",
"n c #A0C0C1",
"m c #A0C0C2",
/* pixels */
"                        mmmmmmmmmmmmmmmm                        ",
"                   mmmmmmmmmmmmmmmmmmmmmmmmm                    ",
"                 mmmmmcxljlhjsssssssshjlxvmmmnn                 ",
"               mmmmldaiiiiiiiiiiiiiiiiiiiiahvnnnm               ",
"             mmmvldiiiiiiiiiiiiiiiiiiiiiiiiiiahvmmm             ",
"            mmvdiiiiiiiiiiiiiiiiiiiiiiiiiiiiiiiijbmm            ",
"          mmmjaiiiiiiiiiiiiiiiiiiiiiiiiiiiiiiiiiiajbm           ",
"         mmvdiiiiiiiiiiiiiiiiiiiiiiiiiiiiiiiiiiiiiijmm          ",
"        mmcaiiiiiiiiiiiiiiiiiiiiiiiiiiiiiiiiiiiiiiiisbmm        ",
"       mmliiiiiiiiiiiiiiiiiiiiiiiiiiiiiiiiiiiiiiiiiiiicmm       ",
"      mmliiiiiiiiiiiiii;>OOOO.....X.O**-uiiiiiiiiiiiiiilmm      ",
"      mliiiiiiiiiiii:%o..................@=uiiiiiiiiiiiilm      ",
"     mliiiiiiiiiiiiO.X.X16666qqq0000622X..Xo*uiiiiiiiiiiilm     ",
"    mciiiiiiiiiii-o..48ytyyyyytyyyyyyyyyq7X..+:iiiiiiiiiiicm    ",
"    baiiiiiiiiii>..6ttyyyyyyyyyyyyyyyyyyyyy02..>iiiiiiiiiiab    ",
"   mdiiiiiiiiii&.18yyyyyyyyyyyyyyyyyyyyyyyyyy0X.>iiiiiiiiiidm   ",
"   xiiiiiiiiii%.3wyyyyyyyyyyyyyyyyyyyyyyyyyyyyw1.=iiiiiiiiiil   ",
"  maiiiiiiiii>.3yyyyyyyyyyyyyyyyyyyyyyyyyyyyyyyy2X;iiiiiiiiiam  ",
"  liiiiiiiii,.4yyyyyyyyyyyyyyyyyyyyyyyyyyyyyyyyyw3ouiiiiiiiial  ",
" maiiiiiiiiiO1yyyyyyyyyyyyyyyyyyyyyyyyyyyyyyyyyyyw<Oiiiiiiiiiam ",
" xiiiiiiiii;Xwyyyyyyyyyyyq76622322238qyyyyyyyyyyyyq.;iiiiiiiiix ",
" fiiiiiiiiiO8yyyyyyyyyt8...............28yyyyyyyyyy6Oiiiiiiiiif ",
" iiiiiiiiiu<yyyyyyyyyq1..................3tyyyyyyyyy.uaiiiiiiii ",
"xiiiiiiiii=8yyyyyyyytX.....................tyyyyyyyy8>iiiiiiiiic",
"hiiiiiiiii$yyyyyyyyt1......................1yyyyyyyyy%iiiiiiiiif",
"fiiiiiiiiiryyyyyyyy3........................5yyyyyyyyeiiiiiiiiif",
"siiiiiiiii8yyyyyyyw..........................wyyyyyyy6iiiiiiiiis",
"iiiiiiiiiiqyyyyyyy4..........................6yyyyyyyqiiiiiiiiia",
"iiiiiiiiiiyyyyyyyy<..........................2yyyyyyywiiiiiiiiii",
"iiiiiiiiiiyyyyyyyy............................yyyyyyyyiiiiiiiiii",
"iiiiiiiiiiyyyyyyyyX...........................yyyyyyyyiiiiiiiiii",
"iiiiiiiiiiyyyyyyyy............................yyyyyyyyiiiiiiiiii",
"iiiiiiiiiiyyyyyyyy............................yyyyyyyyiiiiiiiiii",
"iiiiiiiiiiyyyyyyyy............................yyyyyyyyiiiiiiiiii",
"iiiiiiiiiiyyyyyyyy............................yyyyyyyyiiiiiiiiii",
"iiiiiiiiiiyyyyyyyy............................yyyyyyyyiiiiiiiiii",
"iiiiiiiiiiyyyyyyyy............................yyyyyyyyiiiiiiiiii",
"iiiiiiiiiiyyyyyyyy............................yyyyyyyyiiiiiiiiii",
"iiiiiiiiiiyyyyyyyy............................yyyyyyyyiiiiiiiiii",
"iiiiiiiiiiyyyyyyyy............................yyyyyyyyiiiiiiiiii",
"iiiiiiiiiiyyyyyyyy............................yyyyyyyyiiiiiiiiii",
"iiiiiiiiiiyyyyyyyy............................yyyyyyyyiiiiiiiiii",
"iiiiiiiiiiyyyyyyyy............................yyyyyyyyiiiiiiiiii",
"iiiiiiiiiiyyyyyyyy............................yyyyyyyyiiiiiiiiii",
"iiiiiiiiiiyyyyyyyy............................yyyyyyyyiiiiiiiiii",
"iiiiiiiiiiyyyyyyyy............................yyyyyyyyiiiiiiiiii",
"iiiiiiiiiiyyyyyyyy............................yyyyyyyyiiiiiiiiii",
"iiiiiiiiiiyyyyyyyy............................yyyyyyyyiiiiiiiiii",
"iiiiiiiiiiyyyyyyyy............................yyyyyyyyiiiiiiiiii",
"iiiiiiiiiiyyyyyyyy............................yyyyyyyyiiiiiiiiii",
"iiiiiiiiiiyyyyyyyy............................yyyyyyyyiiiiiiiiii",
"iiiiiiiiiiyyyyyyyy............................yyyyyyyyiiiiiiiiii",
"iiiiiiiiiiyyyyyyyy............................yyyyyyyyiiiiiiiiii",
"iiiiiiiiiiyyyyyyyy............................yyyyyyyyiiiiiiiiii",
"iiiiiiiiiiyyyyyyyy............................yyyyyyyyiiiiiiiiii",
"iiiiiiiiiiyyyyyyyy............................yyyyyyyyiiiiiiiiii",
"iiiiiiiiiiyyyyyyyyyyyyyyyyyyyyyyyyyyyyyyyyyyyyyyyyyyyyiiiiiiiiii",
"iiiiiiiiiiyyyyyyyyyyyyyyyyyyyyyyyyyyyyyyyyyyyyyyyyyyyyiiiiiiiiii",
"iiiiiiiiiiyyyyyyyyyyyyyyyyyyyyyyyyyyyyyyyyyyyyyyyyyyyyiiiiiiiiii",
"iiiiiiiiiiyyyyyyyyyyyyyyyyyyyyyyyyyyyyyyyyyyyyyyyyyyyyiiiiiiiiii",
"iiiiiiiiiiyyyyyyyyyyyyyyyyyyyyyyyyyyyyyyyyyyyyyyyyyyyyiiiiiiiiii",
"iiiiiiiiiiyyyyyyyyyyyyyyyyyyyyyyyyyyyyyyyyyyyyyyyyyyyyiiiiiiiiii",
"iiiiiiiiiiyyyyyyyyyyyyyyyyyyyyyyyyyyyyyyyyyyyyyyyyyyyyiiiiiiiiii",
"iiiiiiiiiiyyyyyyyyyyyyyyyyyyyyyyyyyyyyyyyyyyyyyyyyyyyyiiiiiiiiii"
};
