/* XPM */
static char *_fec4b9aec2745d0800bf9f060135259NK2Bz6xzvL5YanaA[] = {
/* columns rows colors chars-per-pixel */
"64 64 27 1 ",
"  c #24A65B",
". c #24A75B",
"X c #24A85C",
"o c #25A85C",
"O c #25A95D",
"+ c #25AA5D",
"@ c #25AA5E",
"# c #26AB5E",
"$ c #26AC5E",
"% c #26AC5F",
"& c #26AD5F",
"* c #27AE60",
"= c #27AF61",
"- c #27B061",
"; c #28B162",
": c #28B262",
"> c #28B363",
", c #28B463",
"< c #28B564",
"1 c #28B664",
"2 c #29B765",
"3 c #29B865",
"4 c #29B966",
"5 c #29BA66",
"6 c #29BB67",
"7 c #29BC67",
"8 c #2ABD68",
/* pixels */
";;;388888883;;;-                         o;;;o             .=;;;",
";;38888888888-;; .                      .=;;*.              .;;;",
";3888888888883;;o.                      .;;=.                *;;",
"788888888888883;=                       =;;o                 *;;",
"888888888888888<;=.                    *;;;*               .  =4",
"8888888888888888;;*                   .=;;;=               . *<6",
"8888888888888888<;=*                 *;;;;;;..            ..o;66",
"8888888888888888<;=;.                ;;<66;;;...          ..;;<8",
"8888888888888888<;;;;*             .;;<88886--..           *;;;6",
"8888888888888888;;;;;;*           *;;68888888;=.          *;;;;6",
"888888888888888<;;;;;;;*        .*==3888888883;;..       *;;;;;;",
"-8888888888888<-;;;;;;;;*       *;;<88888888883;;.      *;;;;;;;",
";<88888888888<;;;;;;;;;;;;*   .;=;;888888888888<;;..  .==**...*;",
"-;3888888888-;;;;;;;;;;;;;;=;;;;;;;8888888888883;;;;==;;*   ..  ",
" =-38888883,;;=o  .;;;;;;;;;;;;;;;;688888888888;;;;;;;;.        ",
" .=;<78883;;;$    ..;;;;;;;;;;;;;;;;8888888888<;;;;;;;.         ",
"   $;;,,;;;;*       O=;;;;;;;;;;;;;;<88888888<;;;;;;;*          ",
"    =;;;;;;.         *;;;;;;;;;=;;;;;<8888883;;;;;;;.           ",
"    .$;;;;*           =;;;;;;;**##=;;;<8888<;;;;;;;*            ",
"    . =;;;..          *;;;;;;   ...o=;;;36<;;;;;;;.             ",
"    .. *;;..          .;;;;*    .   .==;;;;;;;;;;.              ",
"    .. .=;=.          .;;;..    .     ==;;;;;;;;*.              ",
"        .;=*        ..;;=.            .=;;;;;;;=                ",
"         =;;.       *=;;.             ..=;;;;;;.                ",
"         .;;=..    *;;*.                 =;;;;=                 ",
"         .;;==.   *=;*                    =;;;=                 ",
"        ..;;;;===;=;*                     .;;;=                 ",
"        .*;;;;;;;;;=                        ;;;                 ",
"        .;;;;;;;;;;*                        =;==                ",
"        =;;;;;;;;;=                          ;;;.               ",
"       *;;;;;;;;;;*.                         =;;;               ",
"      *=;;;;;;;;;;..                         *;;;=              ",
"     *;;;;;;;;;;;;*                          *;;;;=....         ",
"    .;;;;;;=;;;;;;;                          *;;;;==..          ",
"   *;;;;;;=**=;;;;;*                         ==;;;;;=o..        ",
"  *;;;;;;;*   ..=;;;*                      .*=;;;;;;;=..        ",
" *==;;;;;.      .*;;=..                    *;;;;;;;;;;;o        ",
"*=;;;;;;*         *;;;.                  .o;;;;<366<;;;;.       ",
";;;;;;;*           .;;*                 .*;;;;<888886;;;;=.   *=",
";;;;;;=             .==*                o;;;;<88888883;;;;;;;;;;",
";;;;;=..             *=;*              *=;;;<8888888886;;;;;;;;;",
";;;;;*..              *;=*            *;=;;;888888888886;;;;;;;;",
";;;;=                 .;;;*         .*;;;;<88888888888886;;;;;;;",
";;;;*                 *;;;=*     ...;;;;;;8888888888888886;;;;;;",
";;;;o                 *=;;;;;.   .=;;;;;;88888888888888888<;;;;;",
";;;;*                 ;=;;;;;;;;;;;;;;;;<888888888888888886;;;;;",
";;;;;.               *;;;;;;;;;;;;;;;;;;4888888888888888888;;;;;",
";;;;;=.             *;;;;;;;;;;;;;;;;;;;;888888888888888884;;;;;",
";;;;;;=o..         .;;;;;;;;;;;;;;;;;;;;;38888888888888888<;;;;;",
";;;;;;;;.. .      .=;;;;;;;;;;;;;;;;;;;;;-788888888888888<;;;;<;",
";;;;;;;;;=..    ..=;;;;;;;;;;;;;;;;;;;;;;;;88888888888883;;;3888",
"84;;;;;;;;=.    .==;;;;;;;*...*=;;;;;;;;;;;-888888888883;;;38888",
"884;;;;;;;;;*..*=;;;;;===.      -=;;;;;;;;;;<3888888883;;;388888",
"8866;;;;;;;;;;;;;;;;;;;*..      .=;;;;;;;;;;;,7888888<;;;3888888",
"8888<;;;;;;;;;;;;;;;;;*         ..o;;;;;;;;;;;;38888<;;;<8888888",
"88886;;;;;;;;;;;;;;;=*          ..oo;;;;;;;;;;;;;<<;;;;;88888888",
"88886;;;;;;;;;;;;;;=*           ..  .;;;;;;;;;;;;;;;;;;;38888888",
"8888<;;;;;;;;;;;;;;*             .  .o;;;;;;;;;;;;;;;;;;38888888",
"888<;;;;;;;;;;;;;;*                   *;;;;;;;;;;;;;;;;;;3888888",
"886;;;;;;;;;;;;;;=                    .=;;;;;;;;;;o    ;;;388888",
"8<;;;;;;;;;;;;;;=..                     -;;;;;;;;oo    o=;;<8888",
"<;;;;;;;;;;;;;;;*                       o;;;;;;-oo       =;;<888",
";;;;;<4644;;;;;;.                        =;;;;;o          =;;;<;",
";;;;;668664;;;;*                         $;;;;o           .=;;;;"
};
