/* XPM */
static char *aa4a870e05b94365b44276e29ee0b74fC6mpllUAgqOJImk6[] = {
/* columns rows colors chars-per-pixel */
"64 64 215 2 ",
"   c #28B162",
".  c #29B765",
"X  c #2ABD68",
"o  c #29BA66",
"O  c #27AE60",
"+  c #24A65B",
"@  c #26AB5E",
"#  c #25AA5D",
"$  c #24A85C",
"%  c #27B061",
"&  c #28B262",
"*  c #29BB67",
"=  c #25A95D",
"-  c #25A85C",
";  c #27AF61",
":  c #26AD5F",
">  c #26AC5E",
",  c #28B463",
"<  c #26AC5F",
"1  c #309554",
"2  c #359053",
"3  c #398950",
"4  c #46794A",
"5  c #4B7549",
"6  c #487F4D",
"7  c #3C9155",
"8  c #30A45D",
"9  c #28B564",
"0  c #28B664",
"q  c #42814D",
"w  c #5F563C",
"e  c #694C39",
"r  c #586543",
"t  c #2D9B57",
"y  c #2CAB5F",
"u  c #556C46",
"i  c #586543",
"p  c #487E4D",
"a  c #60583E",
"s  c #5C5C3F",
"d  c #3E844E",
"f  c #24A75B",
"g  c #29B865",
"h  c #507148",
"j  c #2CAA5F",
"k  c #30A45C",
"l  c #408B52",
"z  c #546B45",
"x  c #64523B",
"c  c #65523B",
"v  c #28A059",
"b  c #389958",
"n  c #5C5E40",
"m  c #29B966",
"M  c #3C9155",
"N  c #28B363",
"B  c #448450",
"V  c #29BC67",
"C  c #60A675",
"Z  c #5DC489",
"A  c #35B56B",
"S  c #507148",
"D  c #2D9D58",
"F  c #D9D2CD",
"G  c white",
"H  c #AEE1C4",
"J  c #93D8B0",
"K  c #319957",
"L  c #ECE8E6",
"P  c #78CE9C",
"I  c #4E6D45",
"U  c #25AA5E",
"Y  c #576341",
"T  c #BBE6CD",
"R  c #349E5A",
"E  c #4F7046",
"W  c #5D6443",
"Q  c #5A6C47",
"!  c #CAF2DB",
"~  c #527C4E",
"^  c #40A45F",
"/  c #2ECC71",
"(  c #2CC56D",
")  c #2BC16B",
"_  c #2BBE69",
"`  c #2ABC68",
"'  c #60583D",
"]  c #4F8451",
"[  c #35BC6A",
"{  c #2DCA70",
"}  c #2BC06A",
"|  c #2ABB67",
" . c #2DC86F",
".. c #2CC36C",
"X. c #39B466",
"o. c #2CC66E",
"O. c #4B7348",
"+. c #65543C",
"@. c #4B8C55",
"#. c #3CAC63",
"$. c #31C46D",
"%. c #3BA660",
"&. c #546944",
"*. c #FFE0B1",
"=. c #D7DCA5",
"-. c #CADBA1",
";. c #B0D899",
":. c #96D691",
">. c #89D48D",
",. c #62D181",
"<. c #55CF7D",
"1. c #449C5C",
"2. c #536844",
"3. c #586542",
"4. c #576341",
"5. c #76875D",
"6. c #AA8C6D",
"7. c #C6A884",
"8. c #725540",
"9. c #E2C49A",
"0. c #ECCDA2",
"q. c #7B5E48",
"w. c #8E7157",
"e. c #B49675",
"r. c #D9BB93",
"t. c #85674F",
"y. c #4C784B",
"u. c #A18366",
"i. c #D0B18B",
"p. c #977A5E",
"a. c #F5D6A9",
"s. c #BD9F7C",
"d. c #536944",
"f. c #467A4A",
"g. c #3B9054",
"h. c #417F4B",
"j. c #65523C",
"k. c #58C779",
"l. c #E4DDA9",
"z. c #4D7C4D",
"x. c #3BCD75",
"c. c #9CA970",
"v. c #ED7159",
"b. c #CA8963",
"n. c #84B977",
"m. c #B95542",
"M. c #60593E",
"N. c #67A460",
"B. c #DB543F",
"V. c #E74C3C",
"C. c #5CAC63",
"Z. c #B86C49",
"A. c #704C39",
"S. c #32AF62",
"D. c #968453",
"F. c #F1DEAD",
"G. c #984C3A",
"H. c #3D9959",
"J. c #739C5D",
"K. c #CF5C42",
"L. c #E85543",
"P. c #AF4C3A",
"I. c #498550",
"U. c #7E9459",
"Y. c #AD744C",
"T. c #50B467",
"R. c #A3D795",
"E. c #FAC49B",
"W. c #C74C3B",
"Q. c #556F48",
"!. c #A84C3A",
"~. c #48CE79",
"^. c #F08367",
"/. c #586844",
"(. c #6DC97D",
"). c #F39676",
"_. c #5D6042",
"`. c #2EB665",
"'. c #624838",
"]. c #A14839",
"[. c #C44A3A",
"{. c #65533C",
"}. c #35A85F",
"|. c #654A38",
" X c #4A3D35",
".X c gray20",
"XX c #8D3F37",
"oX c #FDD6A9",
"OX c #BA4539",
"+X c #363433",
"@X c #514136",
"#X c #473C35",
"$X c #603935",
"%X c #F49F7D",
"&X c #544236",
"*X c #493634",
"=X c #EE7A60",
"-X c #EA5E4A",
";X c #6B3A35",
":X c #433A34",
">X c #586743",
",X c #3D3734",
"<X c #984138",
"1X c #C5473A",
"2X c #3E3433",
"3X c #584437",
"4X c #5B4537",
"5X c #408B52",
"6X c #4E3F36",
"7X c #403934",
"8X c #5D5E41",
"9X c #5E4737",
"0X c #393633",
"qX c #389858",
"wX c #65523B",
/* pixels */
"      . X X X X X X X o       O + + + + + + + + + + + + + + + + + + + + + + + + + @       # + + + + + + + + + + + + + $ %       ",
"  & o X X X X X X X X X *       + + + + + + + + + + + + + + + + + + + + + + + + + O     @ + + + + + + + + + + + + + + + =       ",
"  o X X X X X X X X X X X o     @ + + + + + + + + + + + + + + + + + + + + + + + -     ; + + + + + + + + + + + + + + + + + :     ",
"o X X X X X X X X X X X X X .   % + + + + + + + + + + + + + + + + + + + + + + + O     > + + + + + + + + + + + + + + + + + =     ",
"X X X X X X X X X X X X X X X ,   : + + + + + + + + + + + + + + + + + + + + + >       @ + + + + + + + + + + + + + + + + + -   o ",
"X X X X X X X X X X X X X X X *     < + + 1 2 3 4 4 4 4 4 4 4 4 4 4 4 4 4 4 5 6 7 8   ; + + + + + + + + + + + + + + + + + < 9 X ",
"X X X X X X X X X X X X X X X X 0     q w e e e e e e e e e e e e e e e e e e e e e e r q t + + + + + + + + + + + + + + $   o X ",
"X X X X X X X X X X X X X X X X . y u e e e i i p p p p p p p p p p p p p p p p i a e e e e s d + + + + + + + + + + + f ;   g X ",
"X X X X X X X X X X X X X X X X 0 h e e p j                                         k l z x e e c 4 v + + + + + + + + O     , X ",
"X X X X X X X X X X X X X X X X b e e l                                                     l n e e s 1 + + + + + + :         m ",
"* X X X X X X X X X X X X X X 9 6 e n                                                           M a e e d + + + + O             ",
"N X X X X X X X X X X X X X 9   u e B                                                             j i e e 3 + + O               ",
"  9 X X X X X X X X X X V ,     r e C Z A                                                             S e c D O   O # - - - >   ",
"%   0 X X X X X X X X V &       r e F G G H Z                                                           i e r   @ + + + + + + + ",
"f O   g X X X X X X * &     ; - c e F G G G G J                                                         k e e K + + + + + + + + ",
"+ + O   . V X X X g       > + + e e L G G G G G P                                                         S e I + + + + + + + + ",
"+ + + :     , ,         U + + + e e G G G G G G G Z                                                       M e w + + + + + + + + ",
"+ + + + O             D 4 Y e e e e G G G G G G G T                                                         e e + + + + + + + + ",
"+ + + + + O       R E e e e e W Q Q ! ! ! ! ! ! ! !                                                         n e 2 + + + + + + + ",
"+ + + + + + O   R e e e ~ ^ / / / / / / / / / / / / / / / / ( ( ) _ ` . . &                                 i e 2 + + + + + + + ",
"+ + + + + + + O ' e ] [ / / / / / / / / / / / / / / / / / / / / / / / / / / { ( } | .                       i e 2 + + + + + + + ",
"+ + + + + + + f e e / / / / / / / / / / / / / / / / / / / / / / / / / / / / / / / / / /  ...| .             e e v + + + + + + + ",
"+ + + + + + + + e e X./ / / / / / / / / / / / / / / / / / / / / / / / / / / / / / / / / / / / / / o._ m   k e c + + + + + + + + ",
"+ + + + + + + + O.e +.@.@.#.#.#.#.$./ / / / / / / / / / / / / / / / / / / / / / / / / / / / / / / / / /  .%.e Y + + + + + + + + ",
"+ + + + + + + + + &.e e e e e e e e e *.*.=.-.-.-.;.:.:.:.>.,.,.,.<./ / / / / / / / / / / / / / / / / / / 1.e 2.+ + + + + + + + ",
"+ + + + + + + + + - R 6 6 3.4.Y Y e e *.*.*.*.*.*.*.*.*.*.*.*.*.*.*.*.*.*.*.5.Q Q Q ] @.@.@.^ #.#.#.#.#.1.+.e d + + + + + + + + ",
"+ + + + + + + + + =         % O ; e e *.*.*.*.*.*.*.*.*.*.*.*.*.*.*.*.*.*.*.6.e e e e e e e e e e e e e e e e + + + + + + + + + ",
"+ + + + + + + + + <               e e *.*.*.*.*.*.*.*.*.7.e 8.9.*.*.*.*.*.*.0.e e e e e e e e e e e e e e e e + + + + + + + + + ",
"+ + + + + + + + $                 e e *.*.*.*.*.*.*.*.*.q.e e w.*.*.*.*.*.*.*.e.r.*.*.*.r.t.e e e e e e e e e + + + + + + + + + ",
"+ + + + + + + + O               7 e e *.*.*.*.*.*.*.*.*.e e e e *.*.*.*.*.*.*.*.*.*.*.*.*.0.8.e e e e e e e e + + + + + + + + + ",
"+ + + + + + + :               y.e e e *.*.*.*.*.*.*.*.*.e e e e *.*.*.*.*.*.*.*.*.*.*.*.*.*.r.e e e e e e e e + + + + + + + + + ",
"+ + + + + + <               6 e 8.u.i.*.*.*.*.*.*.*.*.*.t.e e p.*.*.*.*.*.*.*.*.*.*.*.*.*.*.*.e e e e e e e e + + + + + + + + + ",
"+ + + + + >                 ' e 6.*.*.*.*.*.*.*.*.*.*.*.r.e q.a.*.*.*.*.*.*.*.*.*.*.*.*.*.*.*.e e e e e e e w + + + + + + + + + ",
"+ + + + #                   e e 0.*.*.9.p.8.w.w.p.s.0.*.*.*.*.*.*.*.*.*.*.*.*.*.*.*.*.*.*.*.7.e e e e e e e Y + + + + + + + + + ",
"+ + + >               ; O ; e e e.r.*.q.e e e e e e e i.*.*.*.*.*.*.*.*.*.*.*.*.*.*.*.*.*.0.8.e e e e e e e 2.+ + + + + + + + + ",
"+ + <               = + + + d.e e e e e e e e e e e e e r.*.*.*.*.*.*.*.*.*.*.*.*.*.*.*.*.*.r.u.8.e e e e e f.+ + + + + + + + + ",
"+ :               # + + + + + d 4.e e e e e e e e e e e q.*.*.*.*.*.*.*.*.*.*.*.*.*.*.*.*.*.*.*.*.r.e.e.q.e g.= + + + + + + + + ",
"O               @ + + + + + + + 4 e e e e e e e e e e e 8.*.*.*.*.*.*.*.*.*.*.*.*.*.*.*.*.*.*.*.*.*.*.*.t.e y   # + + + + + + + ",
"              O + + + + + + + + h.e e e e e e e e e w.e.0.*.*.*.*.*.*.*.*.*.*.*.*.*.*.*.*.*.*.*.*.*.*.r.e j.      O - + + + @   ",
"            ; + + + + + + + + + v I e +.k.l.*.*.*.*.*.*.*.*.*.*.*.*.*.*.*.*.*.*.*.*.*.*.*.*.*.*.*.*.0.8.e z.                    ",
"            - + + + + + + + + + + O.e @./ x.,.,.,.,.,.,.,.,.,.c.v.v.v.v.v.b.,.,.,.,.,.,.,.,.n.v.v.v.m.e M.X o                   ",
"          > + + + + + + + + + + + w e $./ / / / / / / / / / N.B.V.V.V.V.V.C./ / / / / / / / / Z.V.V.V.A.e S.X *                 ",
"        % + + + + + + + + + + + t e W / / / / / / / / / / D.V.V.V.V.V.V.V./ / / x.:.F.*.*.*.:.N.V.V.V.G.e H.X X o               ",
"        > + + + + + + + + + + + 3 e ] / / / / / / / / J.K.V.V.V.V.V.V.V.V./ / / -.*.*.*.*.*.*.-.L.V.V.P.e I.X X X o             ",
"        @ + + + + + + + + + + + 4 e @./ / / / C.U.Y.V.V.V.V.V.V.V.V.V.V.V.T./ R.*.*.*.*.*.*.*.*.E.V.V.W.e Q.X X X X 0           ",
"        < + + + + + + + + + + + 4 e !.V.V.V.V.V.V.V.V.V.V.V.V.V.V.V.V.V.V.D.~.*.*.*.*.*.*.*.*.*.*.^.V.W.e /.X X X X *           ",
"          $ + + + + + + + + + 4 w e !.V.V.V.V.V.V.V.V.V.V.V.V.V.V.V.V.V.V.B.(.*.*.*.*.*.*.*.*.*.*.).V.W.e _.`.X X X X           ",
"          % $ + + + + + + + I e e '.].V.V.V.V.V.V.V.V.V.V.V.V.V.V.V.V.V.V.V.b.*.*.*.*.*.*.*.*.*.*.).V.[.e e {.}.X X o           ",
"            % $ + + + + + d e |. X.XXXV.V.V.V.V.V.V.V.V.V.V.V.V.V.V.V.V.V.V.L.oX*.*.*.*.*.*.*.*.*.^.V.OX+X@Xe {.`.X ,           ",
"                = + + + + w e #X.X.X$XV.V.V.V.V.V.V.V.V.V.V.V.V.V.V.V.V.V.V.V.^.oX*.*.*.*.*.*.*.%XV.V.XX.X.X&Xe I.0       & ,   ",
"9                 : + + + e e .X.X.X*XV.V.V.V.V.V.V.V.V.V.V.V.V.V.V.V.V.V.V.V.V.L.v.).).).).=X-XV.V.V.;X.X.X:Xe >X      . X X X ",
"X .                 ; $ + e e ,X.X.X.X<XV.V.V.V.V.V.V.V.V.V.V.V.V.V.V.V.V.V.V.V.V.V.V.V.V.V.V.V.V.V.1X2X.X.X:Xe u     g X X X X ",
"X X g                   < 5 e 3X.X.X.X2X<XV.V.V.V.V.V.V.V.V.V.V.V.V.V.V.V.V.V.V.V.V.V.V.V.V.V.V.V.1X*X.X.X+X4Xe 5X  g X X X X X ",
"X X X g                   y e e #X.X.X.X.X.X.X.X.X.X6Xe e e e e e e e e e e e e e e e 7X.X.X.X.X.X.X.X.X.X3Xe 8X  g X X X X X X ",
"X X X X .                   5Xe e @X.X.X.X.X.X.X.X.X6Xe e e e e e e e e e e e e e e e 7X.X.X.X.X.X.X.X+X3Xe j.R . X X X X X X X ",
"X X X X o                     7 j.e 9X0X.X.X.X.X.X.X3Xe d + + + + + + #           h e  X.X.X.X.X.X.X#X|.e j.5X  o X X X X X X X ",
"X X X X o                       R ' e e 4X#X.X.X.X6Xe c + + + + + + + + #         qXe |.:X.X.X0X#X'.e e 8XR     o X X X X X X X ",
"X X X X .                         y h wXe e e e e e e 3 + + + + + + + + + #         8Xe e e e e e e 8X5X        . X X X X X X X ",
"X X X g                             O v h.Y s e e w d + + + + + + + + + + + <         y.j.e e e h qX              g X X X X X X ",
"X X g                             % + + + + + + + + + + + + + + + + + + + + + O                     # + + + - ;     g X X X X X ",
"X 0                               - + + + + + + + + + + + + + + + + + + + + + + %                 # + + + + + $ %     . X X X X ",
"9                               > + + + + + + + + + + + + + + + + + + + + + + + =             % - + + + + + + + f O     9 X X X ",
"          , g o o . &           f + + + + + + + + + + + + + + + + + + + + + + + + ;         % $ + + + + + + + + + + O       ,   ",
"        , V X X X X *         O + + + + + + + + + + + + + + + + + + + + + + + + + @         = + + + + + + + + + + + + %         "
};
