/* XPM */
static char *_1fa5f06f3cb4281e7f38b4059582601X0YSE9Tc2uJX6usL[] = {
/* columns rows colors chars-per-pixel */
"64 64 195 2 ",
"   c #28B162",
".  c #29B765",
"X  c #2ABD68",
"o  c #29BA66",
"O  c #27AE60",
"+  c #24A65B",
"@  c #26AB5E",
"#  c #25AA5D",
"$  c #24A85C",
"%  c #27B061",
"&  c #28B262",
"*  c #29BB67",
"=  c #25A95D",
"-  c #25A85C",
";  c #27AF61",
":  c #26AD5F",
">  c #26AC5E",
",  c #28B463",
"<  c #26AC5F",
"1  c #309554",
"2  c #359053",
"3  c #46794A",
"4  c #576341",
"5  c #576441",
"6  c #586543",
"7  c #4C784B",
"8  c #487F4D",
"9  c #3B9054",
"0  c #28B564",
"q  c #2EB665",
"w  c #408E54",
"e  c #507148",
"r  c #694C39",
"t  c #4E6D45",
"y  c #3E844E",
"u  c #28A059",
"i  c #3D9959",
"p  c #60593E",
"a  c #60583E",
"s  c #586543",
"d  c #487E4D",
"f  c #3C9155",
"g  c #389757",
"h  c #546B45",
"j  c #5C5E40",
"k  c #5F563C",
"l  c #398950",
"z  c #24A75B",
"x  c #29B865",
"c  c #419356",
"v  c #64523B",
"b  c #4C784A",
"n  c #30A45C",
"m  c #2CAA5F",
"M  c #32AF62",
"N  c #507148",
"B  c #2D9B57",
"V  c #29B966",
"C  c #51764A",
"Z  c #28B363",
"A  c #586844",
"S  c #65533C",
"D  c #28B664",
"F  c #29BC67",
"G  c #25AA5E",
"H  c #408B52",
"J  c #46794A",
"K  c #64513B",
"L  c #5C5C3F",
"P  c #60573D",
"I  c #2C9A56",
"U  c #5D5E41",
"Y  c #536843",
"T  c #5C5C3F",
"R  c #4B7348",
"E  c #8B6F55",
"W  c #B49976",
"Q  c #BBA07C",
"!  c #408B52",
"~  c #7D6149",
"^  c #D0B58D",
"/  c #D7BD93",
"(  c #5D5E41",
")  c #765A44",
"_  c #60583D",
"`  c #84684F",
"'  c #F2D5A7",
"]  c #E2C49A",
"[  c #D9BB93",
"{  c #B49675",
"}  c #8E7157",
"|  c #85674F",
" . c #F5D7A9",
".. c #EBCEA2",
"X. c #FFE0B1",
"o. c #D0B18B",
"O. c #AA8C6D",
"+. c #7B5E48",
"@. c #725540",
"#. c #A18366",
"$. c #C6A884",
"%. c #F5D6A9",
"&. c #F0D2A5",
"*. c #5C5D40",
"=. c #29A35B",
"-. c #536844",
";. c #556C46",
":. c #2BAA5E",
">. c #389858",
",. c #419155",
"<. c #556F48",
"1. c #65523B",
"2. c #5A6C47",
"3. c #449C5C",
"4. c #5C955C",
"5. c #FCCDA2",
"6. c #829F68",
"7. c #65533C",
"8. c #35A85F",
"9. c #2ECC71",
"0. c #8A8C56",
"q. c #E85543",
"w. c #ED7159",
"e. c #90B173",
"r. c #62D181",
"t. c #A17C4F",
"y. c #417F4B",
"u. c #65543C",
"i. c #31C46D",
"p. c #CF5C42",
"a. c #E74C3C",
"s. c #39C46D",
"d. c #45BC6A",
"f. c #458C53",
"g. c #50B467",
"h. c #739C5D",
"j. c #6FD285",
"k. c #E8A781",
"l. c #C46445",
"z. c #67A460",
"x. c #E48B6B",
"c. c #F39676",
"v. c #E4DDA9",
"b. c #5D6042",
"n. c #81AA73",
"m. c #DD4839",
"M. c #D34536",
"N. c #DA4738",
"B. c #CD4335",
"V. c #498550",
"C. c #977A5E",
"Z. c #D04435",
"A. c #EE7A60",
"S. c #F7B18C",
"D. c #E54B3B",
"F. c #D14436",
"G. c #3AA15C",
"H. c #ECCDA2",
"J. c #FAC49B",
"K. c #D84638",
"L. c #E0493A",
"P. c #4E6E46",
"I. c #E37860",
"U. c #DF4C3B",
"Y. c #BF4C3B",
"T. c #A84C3A",
"R. c #30A45D",
"E. c #65523B",
"W. c #695F52",
"Q. c #AE4439",
"!. c #8D3F37",
"~. c #4C3734",
"^. c #BA4539",
"/. c #746153",
"(. c #349E5A",
"). c gray20",
"_. c #5B4537",
"`. c #42824E",
"'. c #2CAB5F",
"]. c #65523C",
"[. c #4E3F36",
"{. c #433A34",
"}. c #654A38",
"|. c #3D3734",
" X c #544236",
".X c #586743",
"XX c #5E4737",
"oX c #403934",
"OX c #393633",
"+X c #363433",
"@X c #473C35",
"#X c #584437",
"$X c #3C9155",
"%X c #507047",
"&X c #576442",
/* pixels */
"      . X X X X X X X o       O + + + + + + + + + + + + + + + + + + + + + + + + + @       # + + + + + + + + + + + + + $ %       ",
"  & o X X X X X X X X X *       + + + + + + + + + + + + + + + + + + + + + + + + + O     @ + + + + + + + + + + + + + + + =       ",
"  o X X X X X X X X X X X o     @ + + + + + + + + + + + + + + + + + + + + + + + -     ; + + + + + + + + + + + + + + + + + :     ",
"o X X X X X X X X X X X X X .   % + + + + + + + + + + + + + + + + + + + + + + + O     > + + + + + + + + + + + + + + + + + =     ",
"X X X X X X X X X X X X X X X ,   : + + + + + + + + + + + + + + + + + + + + + >       @ + + + + + + + + + + + + + + + + + -   o ",
"X X X X X X X X X X X X X X X *     < 1 2 3 3 3 4 4 4 4 4 4 4 4 4 4 4 4 4 4 5 6 7 8 8 9 2 + + + + + + + + + + + + + + + + < 0 X ",
"X X X X X X X X X X X X X X X q w e 6 r r r r r r r r r r r r r r r r r r r r r r r r r r 4 t y u + + + + + + + + + + + $   o X ",
"X X X X X X X X X X X X X X i p r r r a s d d d f g g g g g g g g g g g g g g g d d d h j r r r k l + + + + + + + + + z ;   x X ",
"X X X X X X X X X X X X X c r r v b f n                                                 m g d a r r y + + + + + + + + O     , X ",
"X X X X X X X X X X X X M r r N m                                                             m d r r B + + + + + + :         V ",
"* X X X X X X X X X X X C r N                                                                     N r t + + + + + O             ",
"Z X X X X X X X X X X X A r n                                                                     n r 4 + + + + O               ",
"  0 X X X X X X X X X X S r                                                                         r r + + $ O   O # - - - >   ",
"%   D X X X X X X X X F r r                                                                         r r O O     @ + + + + + + + ",
"z O   x X X X X X X * & r r                                                                         r r       G + + + + + + + + ",
"+ + O   . F X X X x     r r                                                                         r r     # + + + + + + + + + ",
"+ + + :     , ,         r r                                                                         r r % = + + + + + + + + + + ",
"+ + + + O             $ r r                                                                         r r # + + + + + + + + + + + ",
"+ + + + + O         > + r r                             m H s s s s H m                             r r + + + + + + + + + + + + ",
"+ + + + + + O       - + r r                             h r r r r r r h                             r r + + + + + + + + + + + + ",
"+ + + + + + + O     = + r r + + + + + + + + + + + + + J r r r r r r r r J + + + + + + + + + + + + + r r + + + + + + + + + + + + ",
"+ + + + + + + z %   O + r r + + + + + + + + + + + + + K r r r r r r r r K + + + + + + + + + + + + + r r + + + + + + + + + + + + ",
"+ + + + + + + + -     > r r + + + + + + + + + + + + + L r r r r r r r r P + + + + + + + + + + + + + r r + + + + + + + + + + + + ",
"+ + + + + + + + + O     r r I + + + + + + + + + + + + + + + + + + + + + + + + + + + + + + + + + + I r r + + + + + + + + + + + + ",
"+ + + + + + + + + #     U r Y + + + + + + + + + + + + + + + + + + + + + + + + + + + + + + + + + + Y r T + + + + + + + + + + + + ",
"+ + + + + + + + + -     8 r r r r r r r r r r r r r r r r r r r r r r r r r r r r r r r r r r r r r r R u + + + + + + + + + + + ",
"+ + + + + + + + + =   e r r r r r r r r r r r r r r r r r r r r r r r r r r r r r r r r r r r r r r r r k + + + + + + + + + + + ",
"+ + + + + + + + + < e r E W Q r r r r r r r r r r r r r r r r r r r r r r r r r r r r r r r r r r Q W E r t + + + + + + + + + + ",
"+ + + + + + + + $ ! r ~ ^ / / r r r r r r r r r r r r r r r r r r r r r r r r r r r r r r r r r r / / ^ ~ r y + + + + + + + + + ",
"+ + + + + + + + O ( r Q / / / r r r r r r r r r r r r r r r r r r r r r r r r r r r r r r r r r r / / / Q r T + + + + + + + + + ",
"+ + + + + + + :   r r / / / / r r r r r r r r r r r r r r r r r r r r r r r r r r r r r r r r r r / / / / r r + + + + + + + + + ",
"+ + + + + + <     r r / / / / ~ r r r r r r r r r r r r r r r r r r r r r r r r r r r r r r r r ) / / / / r r + + + + + + + + + ",
"+ + + + + >       _ r Q / / / ` r r r r r r r r r r r r r r r r r r r r r r r r r r r r r r r r ` / / / Q r k + + + + + + + + + ",
"+ + + + #         8 r ~ ^ / / ' ] [ { } r r r r r r r r r r r r r r r r r r r r r r r r | { [ ]  ./ / ^ ~ r 3 + + + + + + + + + ",
"+ + + >             ( r ) Q / ..X.X.X.X.X.[ o.O.} } +.r r r r r r r r r r @.} } #.$.[ %.X.X.X.X.&./ Q ) r *.+ + + + + + + + + + ",
"+ + <               =.-.r r r O.X.X.X.X.X.X.X.X.X.X.X.X.X.X.X.X.X.X.X.X.X.X.X.X.X.X.X.X.X.X.X.X.{ r r r ;.:.$ + + + + + + + + + ",
"+ :               # + u 3 T r } X.X.X.X.X.X.X.X.X.X.X.X.X.X.X.X.X.X.X.X.X.X.X.X.X.X.X.X.X.X.X.X.{ r _ >.    % = + + + + + + + + ",
"O               @ + + + + u r | X.X.X.X.X.X.X.X.X.X.X.X.X.X.X.X.X.X.X.X.X.X.X.X.X.X.X.X.X.X.X.X.+.r ,..         # + + + + + + + ",
"              O + + + + B 4 r r ] X.X.X.X.X.X.X.X.X.X.X.X.X.X.X.X.X.X.X.X.X.X.X.X.X.X.X.X.X.X.] r r <.M o         O - + + + @   ",
"            ; + + + + 1 1.r 2.3.4.5.X.X.X.X.X.X.X.X.X.X.X.X.X.X.X.X.X.X.X.X.X.X.X.X.X.X.X.X.5.6.3.2.r 7.8.o                     ",
"            - + + + + k r 2.9.9.0.q.w.w.w.w.w.w.e.r.r.r.r.r.r.r.r.r.r.r.r.r.r.e.w.w.w.w.w.w.q.t.9.9.2.r p X o                   ",
"          > + + + + y.r u.i.9.9.p.a.a.a.a.a.a.a.p.s.9.9.9.9.9.9.9.9.9.9.9.9.s.p.a.a.a.a.a.a.a.a.d.9.i.u.r f.X *                 ",
"        % + + + + + 4 r 3.9.9.d.a.a.a.a.a.a.a.a.a.p.g.9.9.9.9.9.9.9.9.9.9.g.p.a.a.a.a.a.a.a.a.a.h.9.9.3.r A X X o               ",
"        > + + + + + r r i.9.j.k.a.a.a.a.a.a.a.a.a.a.a.l.z.s.9.9.9.9.s.z.l.a.a.a.a.a.a.a.a.a.a.a.x.j.9.i.r r X X X o             ",
"        @ + + + + + r r 9.j.X.c.a.a.a.a.a.a.a.a.a.a.a.a.a.a.a.a.a.a.a.a.a.a.a.a.a.a.a.a.a.a.a.a.w.X.j.9.r r X X X X D           ",
"        < + + + + + T r i.v.X.c.a.a.a.a.a.a.a.a.a.a.a.a.a.a.a.a.a.a.a.a.a.a.a.a.a.a.a.a.a.a.a.a.w.X.v.i.r b.X X X X *           ",
"          $ + + + + -.r n.X.X.c.a.a.a.m.M.M.M.M.M.M.a.a.a.a.a.a.a.a.a.a.a.a.M.M.M.M.M.M.m.a.a.a.w.X.X.n.r <.X X X X X           ",
"          % $ + + + 3 r { X.X.c.a.a.a.N.B.B.B.B.B.B.a.a.a.a.a.a.a.a.a.a.a.a.B.B.B.B.B.B.N.a.a.a.w.X.X.{ r V.X X X X o           ",
"            % $ + + y.r C.X.X.c.a.a.a.m.B.B.B.B.B.Z.a.a.a.a.a.a.a.a.a.a.a.a.Z.B.B.B.B.B.m.a.a.a.A.X.X.C.r f.X X X X ,           ",
"                = + 2 r | X.X.S.a.a.a.D.F.B.B.B.B.m.a.a.a.a.a.a.a.a.a.a.a.a.m.B.B.B.B.F.D.a.a.a.c.X.X.| r G.X X X D       & ,   ",
"0                 : B r r H.X.J.a.a.a.a.D.K.M.M.L.a.a.a.a.a.a.a.a.a.a.a.a.a.a.L.M.M.K.D.a.a.a.a.5.X.H.r r M X X .       . X X X ",
"X .                 ; P.r } %.X.I.a.a.a.a.a.a.a.a.a.a.U.Y.T.T.T.T.T.T.Y.U.a.a.a.a.a.a.a.a.a.a.w.X.%.} r C X X .       x X X X X ",
"X X x                 R.E.r } o.W.Q.a.a.a.a.a.a.a.a.!.~.r r r r r r r r ~.!.a.a.a.a.a.a.a.a.^./.o.} r 7.M X x       x X X X X X ",
"X X X x                 (._ r r ).).).).).).).).).).).)._.r y.2 2 `.r _.).).).).).).).).).).).).r r p 8.X D       x X X X X X X ",
"X X X X .                 '.r r ).).).).).).).).).).).)._.r 2 + + 2 r _.).).).).).).).).).).).).r r q X 0       . X X X X X X X ",
"X X X X o                   ].r [.).).).).).).).).).).{.}.r B + + 1 r r |.).).).).).).).).).). Xr .XD           o X X X X X X X ",
"X X X X o                   ! r r XX[.oXOX).).).+X@X Xr r R + + + + t r r #X@XoX).).).).OX[.XXr r >.            o X X X X X X X ",
"X X X X .                     $X].r r r r r r r r r r r y.+ + + + + + 3 r r r r r r r r r r r ].>.              . X X X X X X X ",
"X X X x                           ! %X1.r r r r r 4 y.u + + + + + + + + + y &X6 r r r r r ;.!                     x X X X X X X ",
"X X x                             % + + + + + + + + + + + + + + + + + + + + + O                     # + + + - ;     x X X X X X ",
"X D                               - + + + + + + + + + + + + + + + + + + + + + + %                 # + + + + + $ %     . X X X X ",
"0                               > + + + + + + + + + + + + + + + + + + + + + + + =             % - + + + + + + + z O     0 X X X ",
"          , x o o . &           z + + + + + + + + + + + + + + + + + + + + + + + + ;         % $ + + + + + + + + + + O       ,   ",
"        , F X X X X *         O + + + + + + + + + + + + + + + + + + + + + + + + + @         = + + + + + + + + + + + + %         "
};
