/* XPM */
static char *_1c3f24e2f66413dff76e0b080b33c53n6Y2kadAJhV5AV3C[] = {
/* columns rows colors chars-per-pixel */
"64 64 210 2 ",
"   c #28B162",
".  c #29B765",
"X  c #2ABD68",
"o  c #29BA66",
"O  c #27AE60",
"+  c #24A65B",
"@  c #26AB5E",
"#  c #25AA5D",
"$  c #24A85C",
"%  c #27B061",
"&  c #28B262",
"*  c #29BB67",
"=  c #25A95D",
"-  c #25A85C",
";  c #27AF61",
":  c #26AD5F",
">  c #26AC5E",
",  c #28B463",
"<  c #26AC5F",
"1  c #309554",
"2  c #359053",
"3  c #46794A",
"4  c #576341",
"5  c #576441",
"6  c #586543",
"7  c #4C784B",
"8  c #487F4D",
"9  c #3B9054",
"0  c #28B564",
"q  c #2EB665",
"w  c #408E54",
"e  c #507148",
"r  c #694C39",
"t  c #4E6D45",
"y  c #3E844E",
"u  c #28A059",
"i  c #3D9959",
"p  c #60593E",
"a  c #60583E",
"s  c #586543",
"d  c #487E4D",
"f  c #3C9155",
"g  c #389757",
"h  c #546B45",
"j  c #5C5E40",
"k  c #5F563C",
"l  c #398950",
"z  c #24A75B",
"x  c #29B865",
"c  c #419356",
"v  c #4C784A",
"b  c #30A45C",
"n  c #2CAA5F",
"m  c #32AF62",
"M  c #2D9B57",
"N  c #29B966",
"B  c #51764A",
"V  c #507148",
"C  c #28B363",
"Z  c #586844",
"A  c #65533C",
"S  c #64523B",
"D  c #28B664",
"F  c #29BC67",
"G  c #35B56B",
"H  c #78CE9C",
"J  c #BBE6CD",
"K  c #C9EBD7",
"L  c #E4F5EB",
"P  c white",
"I  c #D6F0E1",
"U  c #50BF7F",
"Y  c #25AA5E",
"T  c #F1FAF5",
"R  c #42BA75",
"E  c #AEE1C4",
"W  c #29B664",
"Q  c #2BBE69",
"!  c #2ABB67",
"~  c #2ECC71",
"^  c #35BC6A",
"/  c #5D5E41",
"(  c #56744A",
")  c #5C5C3F",
"_  c #ECCDA2",
"`  c #FFE0B1",
"'  c #A18366",
"]  c #4B7348",
"[  c #AA8C6D",
"{  c #8B6F55",
"}  c #B49976",
"|  c #BBA07C",
" . c #85674F",
".. c #F5D6A9",
"X. c #E2C49A",
"o. c #8E7157",
"O. c #D9BB93",
"+. c #B49675",
"@. c #408B52",
"#. c #7D6149",
"$. c #D0B58D",
"%. c #D7BD93",
"&. c #7B5E48",
"*. c #5D5E41",
"=. c #E8CCA0",
"-. c #E1C59A",
";. c #E6CA9E",
":. c #FCDDAF",
">. c #60583D",
",. c #FADBAD",
"<. c #725540",
"1. c #F0D2A5",
"2. c #F5D7A9",
"3. c #BD9F7C",
"4. c #765A44",
"5. c #D0B18B",
"6. c #A68B6B",
"7. c #F2D5A7",
"8. c #5C5D40",
"9. c #29A35B",
"0. c #536844",
"q. c #C6A884",
"w. c #556C46",
"e. c #2BAA5E",
"r. c #389858",
"t. c #419155",
"y. c #556F48",
"u. c #65523B",
"i. c #5A6C47",
"p. c #449C5C",
"a. c #5C955C",
"s. c #FCCDA2",
"d. c #77A76B",
"f. c #65533C",
"g. c #35A85F",
"h. c #A38557",
"j. c #ED7159",
"k. c #90B173",
"l. c #62D181",
"z. c #417F4B",
"x. c #65543C",
"c. c #31C46D",
"v. c #8A8C56",
"b. c #E74C3C",
"n. c #CF5C42",
"m. c #39C46D",
"M. c #458C53",
"N. c #48CE79",
"B. c #739C5D",
"V. c #DB543F",
"C. c #50B467",
"Z. c #6FD285",
"A. c #F1DEAD",
"S. c #EECC9E",
"D. c #EB6751",
"F. c #C46445",
"G. c #67A460",
"H. c #E4DDA9",
"J. c #5D6042",
"K. c #81AA73",
"L. c #E34A3B",
"P. c #DA4738",
"I. c #D34536",
"U. c #FAC49B",
"Y. c #CD4335",
"T. c #498550",
"R. c #977A5E",
"E. c #F49F7D",
"W. c #DD4839",
"Q. c #FDD6A9",
"!. c #EA5E4A",
"~. c #CE4335",
"^. c #3AA15C",
"/. c #EE7A60",
"(. c #D14436",
"). c #4E6E46",
"_. c #F6A885",
"`. c #DE4939",
"'. c #C64335",
"]. c #AD4536",
"[. c #9B4737",
"{. c #30A45D",
"}. c #65523B",
"|. c #CFB691",
" X c #D7B692",
".X c #F18C6F",
"XX c #D64637",
"oX c #803B34",
"OX c #493633",
"+X c #349E5A",
"@X c gray20",
"#X c #5B4537",
"$X c #42824E",
"%X c #2CAB5F",
"&X c #65523C",
"*X c #4E3F36",
"=X c #433A34",
"-X c #654A38",
";X c #3D3734",
":X c #544236",
">X c #586743",
",X c #5E4737",
"<X c #403934",
"1X c #393633",
"2X c #363433",
"3X c #473C35",
"4X c #584437",
"5X c #3C9155",
"6X c #507047",
"7X c #576442",
/* pixels */
"      . X X X X X X X o       O + + + + + + + + + + + + + + + + + + + + + + + + + @       # + + + + + + + + + + + + + $ %       ",
"  & o X X X X X X X X X *       + + + + + + + + + + + + + + + + + + + + + + + + + O     @ + + + + + + + + + + + + + + + =       ",
"  o X X X X X X X X X X X o     @ + + + + + + + + + + + + + + + + + + + + + + + -     ; + + + + + + + + + + + + + + + + + :     ",
"o X X X X X X X X X X X X X .   % + + + + + + + + + + + + + + + + + + + + + + + O     > + + + + + + + + + + + + + + + + + =     ",
"X X X X X X X X X X X X X X X ,   : + + + + + + + + + + + + + + + + + + + + + >       @ + + + + + + + + + + + + + + + + + -   o ",
"X X X X X X X X X X X X X X X *     < 1 2 3 3 3 4 4 4 4 4 4 4 4 4 4 4 4 4 4 5 6 7 8 8 9 2 + + + + + + + + + + + + + + + + < 0 X ",
"X X X X X X X X X X X X X X X q w e 6 r r r r r r r r r r r r r r r r r r r r r r r r r r 4 t y u + + + + + + + + + + + $   o X ",
"X X X X X X X X X X X X X X i p r r r a s d d d f g g g g g g g g g g g g g g g d d d h j r r r k l + + + + + + + + + z ;   x X ",
"X X X X X X X X X X X X X c r r a v f b                                                 n g d a r r y + + + + + + + + O     , X ",
"X X X X X X X X X X X X m r r v n                                                             n d r r M + + + + + + :         N ",
"* X X X X X X X X X X X B r V                                                                     V r t + + + + + O             ",
"C X X X X X X X X X X X Z r b                                                                     b r 4 + + + + O               ",
"  0 X X X X X X X X X X A S                                                                         r r + + $ O   O # - - - >   ",
"%   D X X X X X X X X F r r                           G H J K K K K J H                             r r O O     @ + + + + + + + ",
"z O   x X X X X X X * & r r                         H L P P P P P P P P I U                         r r       Y + + + + + + + + ",
"+ + O   . F X X X x     r r                       U T P P P P P P P P P P L U                       r r     # + + + + + + + + + ",
"+ + + :     , ,         r r                     R T P P P P P P P P P P P P I G                     r r % = + + + + + + + + + + ",
"+ + + + O             $ r r                     E P P P P P P P P P P P P P P E                     r r # + + + + + + + + + + + ",
"+ + + + + O         > + r r                     T P P P P P P P P P P P P P P T                     r r + + + + + + + + + + + + ",
"+ + + + + + O       - + r r     W . . . . Q Q Q Q Q Q Q Q Q Q Q Q Q Q Q Q Q Q Q Q Q Q ! . . . W     r r + + + + + + + + + + + + ",
"+ + + + + + + O     = + r r ~ ~ ~ ~ ~ ~ ~ ~ ~ ~ ~ ~ ~ ~ ~ ~ ~ ~ ~ ~ ~ ~ ~ ~ ~ ~ ~ ~ ~ ~ ~ ~ ~ ~ ~ ~ r r + + + + + + + + + + + + ",
"+ + + + + + + z %   O + r r ~ ~ ~ ~ ~ ~ ~ ~ ~ ~ ~ ~ ~ ~ ~ ~ ~ ~ ~ ~ ~ ~ ~ ~ ~ ~ ~ ~ ~ ~ ~ ~ ~ ~ ~ ~ r r + + + + + + + + + + + + ",
"+ + + + + + + + -     > r r ~ ~ ~ ~ ~ ~ ~ ~ ~ ~ ~ ~ ~ ~ ~ ~ ~ ~ ~ ~ ~ ~ ~ ~ ~ ~ ~ ~ ~ ~ ~ ~ ~ ~ ~ ~ r r + + + + + + + + + + + + ",
"+ + + + + + + + + O     r r ^ ~ ~ ~ ~ ~ ~ ~ ~ ~ ~ ~ ~ ~ ~ ~ ~ ~ ~ ~ ~ ~ ~ ~ ~ ~ ~ ~ ~ ~ ~ ~ ~ ~ ~ ^ r r + + + + + + + + + + + + ",
"+ + + + + + + + + #     / r ( ~ ~ ~ ~ ~ ~ ~ ~ ~ ~ ~ ~ ~ ~ ~ ~ ~ ~ ~ ~ ~ ~ ~ ~ ~ ~ ~ ~ ~ ~ ~ ~ ~ ~ ( r ) + + + + + + + + + + + + ",
"+ + + + + + + + + -     8 r r r r r _ ` ` ` ` ` ` ` ` ` ` ` ` ` ` ` ` ` ` ` ` ` ` ` ` ` ` ` ' r r r r ] u + + + + + + + + + + + ",
"+ + + + + + + + + =   e r r r r r [ ` ` ` ` ` ` ` ` ` ` ` ` ` ` ` ` ` ` ` ` ` ` ` ` ` ` ` ` _ r r r r r k + + + + + + + + + + + ",
"+ + + + + + + + + < e r { } | r  ...` ` ` X.o.o.X.` ` ` ` ` ` ` ` ` ` ` ` ` ` X.o.o.O.` ` ` ` +.r | } { r t + + + + + + + + + + ",
"+ + + + + + + + $ @.r #.$.%.%.&.X.` ` ` ` o.r r o.` ` ` ` ` ` ` ` ` ` ` ` ` ` o.r r o.` ` ` ` `  .%.%.$.#.r y + + + + + + + + + ",
"+ + + + + + + + O *.r | %.%.%...` ` ` ` ` r r r r ` ` ` ` ` ` ` ` ` ` ` ` ` ` r r r r ` ` ` ` ` ..%.%.%.| r ) + + + + + + + + + ",
"+ + + + + + + :   r r %.%.%.%.` ` ` ` ` ` r r r r ` ` ` ` ` ` ` ` ` ` ` ` ` ` r r r r ` ` ` ` ` ` %.%.%.%.r r + + + + + + + + + ",
"+ + + + + + <     r r %.%.%.%.` ` ` ` ` `  .r r  .` ` ` ` ` =.-.-.;.:.` ` ` `  .r r  .` ` ` ` ` :.%.%.%.%.r r + + + + + + + + + ",
"+ + + + + >       >.r | %.%.%.,.` ` ` ` ` X.<.<.X.` ` ` ` 1.%.%.%.%.=.` ` ` ` X.<.r O.` ` ` ` ` 2.%.%.%.| r k + + + + + + + + + ",
"+ + + + #         8 r #.$.%.%.2.` ` ` ` ` ` ` ` ` ` ` _ 3.%.%.%.%.%.%.3.X.` ` ` ` ` ` ` ` ` ` ` 2.%.%.$.#.r 3 + + + + + + + + + ",
"+ + + >             *.r 4.| %.1.` ` ` ` ` ` ` ` ` ` 5.r r 6.%.%.%.%.} r r 5.` ` ` ` ` ` ` ` ` ` 7.%.| 4.r 8.+ + + + + + + + + + ",
"+ + <               9.0.r r r +.` ` ` ` ` ` ` ` ` O.r r r r r r r r r r r r q.` ` ` ` ` ` ` ` ` +.r r r w.e.$ + + + + + + + + + ",
"+ :               # + u 3 ) r o.` ` ` ` ` ` ` ` ` &.r r r r r r r r r r r r <.` ` ` ` ` ` ` ` ` +.r >.r.    % = + + + + + + + + ",
"O               @ + + + + u r  .` ` ` ` ` ` ` ` ` <.r r r r r r r r r r r r <.` ` ` ` ` ` ` ` ` &.r t..         # + + + + + + + ",
"              O + + + + M 4 r r X.` ` ` ` ` ` ` ` _ +.o.r r r r r r r r o.+._ ` ` ` ` ` ` ` ` X.r r y.m o         O - + + + @   ",
"            ; + + + + 1 u.r i.p.a.s.` ` ` ` ` ` ` ` ` ` ` ` ` ` ` ` ` ` ` ` ` ` ` ` ` ` ` ` s.d.p.i.r f.g.o                     ",
"            - + + + + k r i.~ ~ ~ h.j.j.j.j.j.j.k.l.l.l.l.l.l.l.l.l.l.l.l.l.l.k.j.j.j.j.j.j.h.~ ~ ~ i.r p X o                   ",
"          > + + + + z.r x.c.~ ~ ~ ~ v.b.b.b.b.b.n.m.~ ~ ~ ~ ~ ~ ~ ~ ~ ~ ~ ~ m.n.b.b.b.b.b.v.~ ~ ~ ~ c.x.r M.X *                 ",
"        % + + + + + 4 r p.~ ~ ~ l.l.N.B.V.b.b.b.b.n.C.~ ~ ~ ~ ~ ~ ~ ~ ~ ~ C.n.b.b.b.b.V.B.N.l.l.~ ~ ~ p.r Z X X o               ",
"        > + + + + + r r c.~ Z.A.` ` ` ` S.D.b.b.b.b.b.F.G.m.~ ~ ~ ~ m.G.F.b.b.b.b.b.D.S.` ` ` ` A.Z.~ c.r r X X X o             ",
"        @ + + + + + r r ~ Z.` ` ` ` ` ` ` s.b.b.b.b.b.b.b.b.b.b.b.b.b.b.b.b.b.b.b.b.s.` ` ` ` ` ` ` Z.~ r r X X X X D           ",
"        < + + + + + ) r c.H.` ` ` ` ` ` ` ` b.b.b.b.b.b.b.b.b.b.b.b.b.b.b.b.b.b.b.b.` ` ` ` ` ` ` ` H.c.r J.X X X X *           ",
"          $ + + + + 0.r K.` ` ` ` ` ` ` ` ` b.b.b.b.b.b.L.P.I.I.I.I.P.L.b.b.b.b.b.b.` ` ` ` ` ` ` ` ` K.r y.X X X X X           ",
"          % $ + + + 3 r +.` ` ` ` ` ` ` ` U.b.b.b.b.b.P.Y.Y.Y.Y.Y.Y.Y.Y.P.b.b.b.b.b.U.` ` ` ` ` ` ` ` +.r T.X X X X o           ",
"            % $ + + z.r R.` ` ` ` ` ` ` ` E.b.b.b.b.W.Y.Y.Y.Y.Y.Y.Y.Y.Y.Y.W.b.b.b.b.E.` ` ` ` ` ` ` ` R.r M.X X X X ,           ",
"                = + 2 r  .` ` ` ` ` ` ` Q.!.b.b.b.L.~.Y.Y.Y.Y.Y.Y.Y.Y.Y.Y.~.L.b.b.b.!.Q.` ` ` ` ` ` `  .r ^.X X X D       & ,   ",
"0                 : M r r _ ` ` ` ` ` ` /.b.b.b.b.(.Y.Y.Y.Y.Y.Y.Y.Y.Y.Y.Y.Y.(.b.b.b.b./.` ` ` ` ` ` _ r r m X X .       . X X X ",
"X .                 ; ).r o...` ` ` ` _.b.b.b.b.`.Y.Y.'.].[.[.[.[.[.[.].'.Y.Y.`.b.b.b.b._.` ` ` ` ..o.r B X X .       x X X X X ",
"X X x                 {.}.r o.5.|. X.Xb.b.b.b.b.XXY.oXOXr r r r r r r r OXoXY.XXb.b.b.b.b..X X|.5.o.r f.m X x       x X X X X X ",
"X X X x                 +X>.r r @X@X@X@X@X@X@X@X@X@X@X@X#Xr z.2 2 $Xr #X@X@X@X@X@X@X@X@X@X@X@X@Xr r p g.X D       x X X X X X X ",
"X X X X .                 %Xr r @X@X@X@X@X@X@X@X@X@X@X@X#Xr 2 + + 2 r #X@X@X@X@X@X@X@X@X@X@X@X@Xr r q X 0       . X X X X X X X ",
"X X X X o                   &Xr *X@X@X@X@X@X@X@X@X@X@X=X-Xr M + + 1 r r ;X@X@X@X@X@X@X@X@X@X@X:Xr >XD           o X X X X X X X ",
"X X X X o                   @.r r ,X*X<X1X@X@X@X2X3X:Xr r ] + + + + t r r 4X3X<X@X@X@X@X1X*X,Xr r r.            o X X X X X X X ",
"X X X X .                     5X&Xr r r r r r r r r r r z.+ + + + + + 3 r r r r r r r r r r r &Xr.              . X X X X X X X ",
"X X X x                           @.6Xu.r r r r r 4 z.u + + + + + + + + + y 7X6 r r r r r w.@.                    x X X X X X X ",
"X X x                             % + + + + + + + + + + + + + + + + + + + + + O                     # + + + - ;     x X X X X X ",
"X D                               - + + + + + + + + + + + + + + + + + + + + + + %                 # + + + + + $ %     . X X X X ",
"0                               > + + + + + + + + + + + + + + + + + + + + + + + =             % - + + + + + + + z O     0 X X X ",
"          , x o o . &           z + + + + + + + + + + + + + + + + + + + + + + + + ;         % $ + + + + + + + + + + O       ,   ",
"        , F X X X X *         O + + + + + + + + + + + + + + + + + + + + + + + + + @         = + + + + + + + + + + + + %         "
};
