/* XPM */
static char *_032f8a993854d7e8a76a87b7824355emnFjroeGHPhggC0q[] = {
/* columns rows colors chars-per-pixel */
"64 64 222 2 ",
"   c #28B162",
".  c #29B765",
"X  c #2ABD68",
"o  c #29BA66",
"O  c #27AE60",
"+  c #24A65B",
"@  c #26AB5E",
"#  c #25AA5D",
"$  c #24A85C",
"%  c #27B061",
"&  c #28B262",
"*  c #29BB67",
"=  c #25A95D",
"-  c #25A85C",
";  c #27AF61",
":  c #26AD5F",
">  c #26AC5E",
",  c #28B463",
"<  c #26AC5F",
"1  c #2D9B57",
"2  c #398950",
"3  c #46794A",
"4  c #4B7348",
"5  c #467B4B",
"6  c #487F4D",
"7  c #3C9155",
"8  c #389858",
"9  c #349E5A",
"0  c #28B564",
"q  c #28B664",
"w  c #30A45D",
"e  c #42814D",
"r  c #576341",
"t  c #694C39",
"y  c #60583D",
"u  c #418F54",
"i  c #5D5E41",
"p  c #60583E",
"a  c #586543",
"s  c #487E4D",
"d  c #536944",
"f  c #28A059",
"g  c #24A75B",
"h  c #29B865",
"j  c #2EB665",
"k  c #498550",
"l  c #65533C",
"z  c #64523B",
"x  c #546B45",
"c  c #408B52",
"v  c #30A45C",
"b  c #2CAA5F",
"n  c #4E6D45",
"m  c #35A85F",
"M  c #5D6042",
"N  c #5C5E40",
"B  c #359153",
"V  c #29B966",
"C  c #419356",
"Z  c #3C9155",
"A  c #477E4D",
"S  c #28B363",
"D  c #3D9959",
"F  c #448450",
"G  c #586543",
"H  c #32AF62",
"J  c #507148",
"K  c #35B56B",
"L  c #5DC489",
"P  c #60A675",
"I  c #586643",
"U  c #586844",
"Y  c #AEE1C4",
"T  c white",
"R  c #D9D2CD",
"E  c #586743",
"W  c #93D8B0",
"Q  c #65523C",
"!  c #25AA5E",
"~  c #29BC67",
"^  c #51764A",
"/  c #78CE9C",
"(  c #ECE8E6",
")  c #BBE6CD",
"_  c #2E9E59",
"`  c #CAF2DB",
"'  c #5A6C47",
"]  c #5D6443",
"[  c #309554",
"{  c #2ABC68",
"}  c #2BBE69",
"|  c #2BC16B",
" . c #2CC56D",
".. c #2ECC71",
"X. c #40A45F",
"o. c #527C4E",
"O. c #379656",
"+. c #2ABB67",
"@. c #2BC06A",
"#. c #2DCA70",
"$. c #35BC6A",
"%. c #4F8451",
"&. c #5F563C",
"*. c #28A159",
"=. c #2CC36C",
"-. c #2DC86F",
";. c #65523B",
":. c #2CC66E",
">. c #39B466",
",. c #3BA660",
"<. c #31C46D",
"1. c #3CAC63",
"2. c #4B8C55",
"3. c #65543C",
"4. c #536844",
"5. c #449C5C",
"6. c #55CF7D",
"7. c #62D181",
"8. c #89D48D",
"9. c #96D691",
"0. c #B0D899",
"q. c #CADBA1",
"w. c #D7DCA5",
"e. c #FFE0B1",
"r. c #3E844E",
"t. c #76875D",
"y. c #AA8C6D",
"u. c #ECCDA2",
"i. c #E2C49A",
"p. c #725540",
"a. c #C6A884",
"s. c #85674F",
"d. c #D9BB93",
"f. c #B49675",
"g. c #8E7157",
"h. c #7B5E48",
"j. c #408B52",
"k. c #556C46",
"l. c #977A5E",
"z. c #477E4D",
"x. c #F5D6A9",
"c. c #BD9F7C",
"v. c #507148",
"b. c #D0B18B",
"n. c #A18366",
"m. c #369354",
"M. c #48804E",
"N. c #448B52",
"B. c #E4DDA9",
"V. c #58C779",
"C. c #B95542",
"Z. c #ED7159",
"A. c #84B977",
"S. c #CA8963",
"D. c #9CA970",
"F. c #3BCD75",
"G. c #4D7D4E",
"H. c #704C39",
"J. c #E74C3C",
"K. c #B86C49",
"L. c #5CAC63",
"P. c #DB543F",
"I. c #67A460",
"U. c #60593E",
"Y. c #984C3A",
"T. c #F1DEAD",
"R. c #968453",
"E. c #AF4C3A",
"W. c #E85543",
"Q. c #CF5C42",
"!. c #739C5D",
"~. c #C74C3B",
"^. c #FAC49B",
"/. c #A3D795",
"(. c #50B467",
"). c #AD744C",
"_. c #7E9459",
"`. c #F08367",
"'. c #48CE79",
"]. c #A84C3A",
"[. c #5C5C3F",
"{. c #F39676",
"}. c #6DC97D",
"|. c #65523B",
" X c #C44A3A",
".X c #A14839",
"XX c #624838",
"oX c #2D9D58",
"OX c #514136",
"+X c #363433",
"@X c #AE4439",
"#X c #FDD6A9",
"$X c #8D3F37",
"%X c gray20",
"&X c #4A3D35",
"*X c #654A38",
"=X c #544236",
"-X c #F49F7D",
";X c #603935",
":X c #473C35",
">X c #433A34",
",X c #543734",
"<X c #EA5E4A",
"1X c #EE7A60",
"2X c #493634",
"3X c #C5473A",
"4X c #984138",
"5X c #3D3734",
"6X c #5B4537",
"7X c #3E3433",
"8X c #584437",
"9X c #403934",
"0X c #4E3F36",
"qX c #2CAB5F",
"wX c #65523C",
"eX c #5E4737",
"rX c #393633",
"tX c #3C9355",
"yX c #359053",
"uX c #65523B",
"iX c #60573D",
"pX c #43854F",
/* pixels */
"      . X X X X X X X o       O + + + + + + + + + + + + + + + + + + + + + + + + + @       # + + + + + + + + + + + + + $ %       ",
"  & o X X X X X X X X X *       + + + + + + + + + + + + + + + + + + + + + + + + + O     @ + + + + + + + + + + + + + + + =       ",
"  o X X X X X X X X X X X o     @ + + + + + + + + + + + + + + + + + + + + + + + -     ; + + + + + + + + + + + + + + + + + :     ",
"o X X X X X X X X X X X X X .   % + + + + + + + + + + + + + + + + + + + + + + + O     > + + + + + + + + + + + + + + + + + =     ",
"X X X X X X X X X X X X X X X ,   : + + + + + + + + + + + + + + + + + + + + + >       @ + + + + + + + + + + + + + + + + + -   o ",
"X X X X X X X X X X X X X X X *     < + + + 1 2 3 4 3 3 3 3 3 3 3 3 3 3 3 3 5 6 7 8 9 ; + + + + + + + + + + + + + + + + + < 0 X ",
"X X X X X X X X X X X X X X X X q   w e r t t t t t t t t t t t t t t t t t t t t t t y e + + + + + + + + + + + + + + + $   o X ",
"X X X X X X X X X X X X X X X X u i t t t t p a s s s s s s s s s s s s s s s s a a t t t d f + + + + + + + + + + + + g ;   h X ",
"X X X X X X X X X X X X X j k l t t z x c v                                         b s t t n + + + + + + + + + + + + O     , X ",
"X X X X X X X X X X X X m M t t N c                                                     c t t B + + + + + + + + + + :         V ",
"* X X X X X X X X X X C t t p Z                                                           N t A $ + + + + + + + + O             ",
"S X X X X X X X X X D t t a b                                                             F t G % $ + + + + + + O               ",
"  0 X X X X X X X H l t J                                                             K L P t I   % # + + + $ O   O # - - - >   ",
"%   q X X X X X X U t a                                                           L Y T T R t E       ; O O     @ + + + + + + + ",
"g O   h X X X X m t t v                                                         W T T T T R t Q               ! + + + + + + + + ",
"+ + O   . ~ X X ^ t J                                                         / T T T T T ( t t             # + + + + + + + + + ",
"+ + + :     , , y t Z                                                       L T T T T T T T t t         % = + + + + + + + + + + ",
"+ + + + O       t t                                                         ) T T T T T T T t t t t G 6 _ + + + + + + + + + + + ",
"+ + + + + O   8 t N                                                         ` ` ` ` ` ` ` ` ' ' ] t t t t n [ + + + + + + + + + ",
"+ + + + + + O 8 t a                                 & . . { } |  . .................................X.o.t t t [ + + + + + + + + ",
"+ + + + + + + O.t a                       . +.@. .#.....................................................$.%.t &.+ + + + + + + + ",
"+ + + + + + + *.t t             . +.=.-.....................................................................t t + + + + + + + + ",
"+ + + + + + + + ;.t v   V } :.............................................................................>.t t + + + + + + + + ",
"+ + + + + + + + r t ,.-.....................................................................<.1.1.1.1.2.2.3.t 4 + + + + + + + + ",
"+ + + + + + + + 4.t 5.......................................6.7.7.7.8.9.9.9.0.q.q.q.w.e.e.t t t t t t t t t 4.+ + + + + + + + + ",
"+ + + + + + + + r.t 3.5.1.1.1.1.1.X.2.2.2.%.' ' ' t.e.e.e.e.e.e.e.e.e.e.e.e.e.e.e.e.e.e.e.t t r r r r 3 3 [ + + + + + + + + + + ",
"+ + + + + + + + + t t t t t t t t t t t t t t t t y.e.e.e.e.e.e.e.e.e.e.e.e.e.e.e.e.e.e.e.t t + + + + + + + + + + + + + + + + + ",
"+ + + + + + + + + t t t t t t t t t t t t t t t t u.e.e.e.e.e.e.i.p.t a.e.e.e.e.e.e.e.e.e.t t g + + + + + + + + + + + + + + + + ",
"+ + + + + + + + $ t t t t t t t t t s.d.e.e.e.d.f.e.e.e.e.e.e.e.g.t t h.e.e.e.e.e.e.e.e.e.t t : + + + + + + + + + + + + + + + + ",
"+ + + + + + + + O t t t t t t t t p.u.e.e.e.e.e.e.e.e.e.e.e.e.e.t t t t e.e.e.e.e.e.e.e.e.t t j.# + + + + + + + + + + + + + + + ",
"+ + + + + + + :   t t t t t t t t d.e.e.e.e.e.e.e.e.e.e.e.e.e.e.t t t t e.e.e.e.e.e.e.e.e.t t t k.$ + + + + + + + + + + + + + + ",
"+ + + + + + <     t t t t t t t t e.e.e.e.e.e.e.e.e.e.e.e.e.e.e.l.t t s.e.e.e.e.e.e.e.e.e.d.a.h.t z.$ + + + + + + + + + + + + + ",
"+ + + + + >       y t t t t t t t e.e.e.e.e.e.e.e.e.e.e.e.e.e.e.x.h.t d.e.e.e.e.e.e.e.e.e.e.e.a.t y % g + + + + + + + + + + + + ",
"+ + + + #         G t t t t t t t a.e.e.e.e.e.e.e.e.e.e.e.e.e.e.e.e.e.e.e.u.c.l.g.g.p.l.i.e.e.e.t t   O + + + + + + + + + + + + ",
"+ + + >           v.t t t t t t t p.u.e.e.e.e.e.e.e.e.e.e.e.e.e.e.e.e.e.b.t t t t t t t h.e.x.f.t t     ; $ + + + + + + + + + + ",
"+ + <             6 t t t t t p.n.d.e.e.e.e.e.e.e.e.e.e.e.e.e.e.e.e.e.d.t t t t t t t t t t t t t k.      % $ + + + + + + + + + ",
"+ :               m.t h.f.f.d.e.e.e.e.e.e.e.e.e.e.e.e.e.e.e.e.e.e.e.e.h.t t t t t t t t t t t G j.          % = + + + + + + + + ",
"O               @ f t s.e.e.e.e.e.e.e.e.e.e.e.e.e.e.e.e.e.e.e.e.e.e.e.p.t t t t t t t t t t t M.V o o .         # + + + + + + + ",
"              O + + &.t d.e.e.e.e.e.e.e.e.e.e.e.e.e.e.e.e.e.e.e.e.e.e.u.f.g.t t t t t t t t t N.X X X X o         O - + + + @   ",
"            ; + + + 3 t p.u.e.e.e.e.e.e.e.e.e.e.e.e.e.e.e.e.e.e.e.e.e.e.e.e.e.e.e.e.B.V.3.t ^ j X X X X X o                     ",
"            - + + + + &.t C.Z.Z.Z.A.7.7.7.7.7.7.7.7.S.Z.Z.Z.Z.Z.D.7.7.7.7.7.7.7.7.7.F...2.t G.X X X X X X X o                   ",
"          > + + + + 1 t H.J.J.J.K...................L.J.J.J.J.J.P.I.....................<.t U.X X X X X X X X *                 ",
"        % + + + + + 2 t Y.J.J.J.I.9.e.e.e.T.9.F.......J.J.J.J.J.J.J.R.....................] t H X X X X X X X X o               ",
"        > + + + + + 3 t E.J.J.W.q.e.e.e.e.e.e.q.......J.J.J.J.J.J.J.J.Q.!.................%.t D X X X X X X X X X o             ",
"        @ + + + + + 4.t ~.J.J.^.e.e.e.e.e.e.e.e./...(.J.J.J.J.J.J.J.J.J.J.J.)._.L.........2.t k X X X X X X X X X X q           ",
"        < + + + + + r t ~.J.`.e.e.e.e.e.e.e.e.e.e.'.R.J.J.J.J.J.J.J.J.J.J.J.J.J.J.J.J.J.J.].t k X X X X X X X X X X *           ",
"          $ + + + f [.t ~.J.{.e.e.e.e.e.e.e.e.e.e.}.P.J.J.J.J.J.J.J.J.J.J.J.J.J.J.J.J.J.J.].t U.k X X X X X X X X X X           ",
"          % $ + [ |.t t  XJ.{.e.e.e.e.e.e.e.e.e.e.S.J.J.J.J.J.J.J.J.J.J.J.J.J.J.J.J.J.J.J..XXXt t ^ X X X X X X X X o           ",
"            % oX|.t OX+X@XJ.`.e.e.e.e.e.e.e.e.e.#XW.J.J.J.J.J.J.J.J.J.J.J.J.J.J.J.J.J.J.J.$X%X&X*Xt C X X X X X X X ,           ",
"              6 t =X%X%X$XJ.J.-Xe.e.e.e.e.e.e.#X`.J.J.J.J.J.J.J.J.J.J.J.J.J.J.J.J.J.J.J.J.;X%X%X:Xt U.X X X X X X q       & ,   ",
"0             G t >X%X%X,XJ.J.J.<X1X{.{.{.{.Z.W.J.J.J.J.J.J.J.J.J.J.J.J.J.J.J.J.J.J.J.J.J.2X%X%X%Xt t X X X X X .       . X X X ",
"X .           k.t >X%X%X%X3XJ.J.J.J.J.J.J.J.J.J.J.J.J.J.J.J.J.J.J.J.J.J.J.J.J.J.J.J.J.J.4X%X%X%X5Xt t X X X X .       h X X X X ",
"X X h         j.t 6X+X%X%X2X3XJ.J.J.J.J.J.J.J.J.J.J.J.J.J.J.J.J.J.J.J.J.J.J.J.J.J.J.J.4X7X%X%X%X8Xt G.X X X h       h X X X X X ",
"X X X h         i t 8X%X%X%X%X%X%X%X%X%X9Xt t t t t t t t t t t t t t t t 0X%X%X%X%X%X%X%X%X%X:Xt t j X X q       h X X X X X X ",
"X X X X .       qXwXt eXrX%X%X%X%X%X%X%X9Xt t t t t t t t t t t t t t t t 0X%X%X%X%X%X%X%X%XOXt t C X X 0       . X X X X X X X ",
"X X X X o         j.wXt *X&X%X%X%X%X%X%X&Xt n + + + + + + + + + + + + _ t 8X%X%X%X%X%X%XrXeXt wXtX. q           o X X X X X X X ",
"X X X X o           9 i t t XX:XrX%X%X>X*Xt yX+ + + + + + + + + + + + + uXt 0X%X%X%X:X6Xt t y 9                 o X X X X X X X ",
"X X X X .               j.i t t t t t t t [.+ + + + + + + + + + + + + + 2 t t t t t t t wXv.qX                  . X X X X X X X ",
"X X X h                     8 v.t t t |.4 + + + + + + + + + + + + + + + + r.iXt t i G pXqX                        h X X X X X X ",
"X X h                             % + + + + + + + + + + + + + + + + + + + + + O                     # + + + - ;     h X X X X X ",
"X q                               - + + + + + + + + + + + + + + + + + + + + + + %                 # + + + + + $ %     . X X X X ",
"0                               > + + + + + + + + + + + + + + + + + + + + + + + =             % - + + + + + + + g O     0 X X X ",
"          , h o o . &           g + + + + + + + + + + + + + + + + + + + + + + + + ;         % $ + + + + + + + + + + O       ,   ",
"        , ~ X X X X *         O + + + + + + + + + + + + + + + + + + + + + + + + + @         = + + + + + + + + + + + + %         "
};
