/* XPM */
static char *_c697c2200314593f00da42695a59531t2rhfH6RplfnpVJW[] = {
/* columns rows colors chars-per-pixel */
"64 64 15 1 ",
"  c None",
". c #AD382B",
"X c #BB3C2F",
"o c #CD4334",
"O c #D34535",
"+ c #D64636",
"@ c #D94737",
"# c #DC4838",
"$ c #DF4939",
"% c #EC4D3C",
"& c #F24F3E",
"* c #FF5241",
"= c #FF5341",
"- c #FF5242",
"; c #FF5342",
/* pixels */
"     ;;;;;;;;;;;;;;;;;;;;;;;;;;oo;;;;;;;;;;;;;;;;;;;;;;;;&;     ",
"   ;;;;;;;;;;;;;;;;;;;;;;;;;;;;oo;;;;;;;;;;;;;;;;;;;;;;;;;;;;   ",
" ;;;&$@@oooooooooooooooooooooooXXooooooooooooooooooooooo@@%%;;; ",
" ;;$oooooooooooooooooooooooooooXXooooooooooooooooooooooooooo$;; ",
";;%ooooooooooooooooooooooooooooXXoooooooooooooooooooooooooooo%;;",
";;+ooooooooooooooooooooooooooooXXoooooooooooooooooooooooooooo+;;",
";;oooooooooooooooooooooooooooooXXooooooooooooooooooooooooooooo;;",
";;oooooooooooooooooooooooooooooXXooooooooooooooooooooooooooooo;;",
";;oooooooooooooooooooooooooooooXXooooooooooooooooooooooooooooo;;",
";;oooooooooooooooooooooooooooooXXooooooooooooooooooooooooooooo;;",
";;oooooooooooooooooooooooooooooXXooooooooooooooooooooooooooooo;;",
";;oooooooooooooooooooooooooooooXXooooooooooooooooooooooooooooo;;",
";;oooooooooooooooooooooooooooooXXooooooooooooooooooooooooooooo;;",
";;oooooooooooooooooooooooooooooXXooooooooooooooooooooooooooooo;;",
";;oooooooooooooooooooooooooooooXXooooooooooooooooooooooooooooo;;",
"oo............................................................oo",
"oo............................................................oo",
";;oooooooooooooXXooooooooooooooooooooooooooooooXXooooooooooooo;;",
";;oooooooooooooXXooooooooooooooooooooooooooooooXXooooooooooooo;;",
";;oooooooooooooXXooooooooooooooooooooooooooooooXXooooooooooooo;;",
";;oooooooooooooXXooooooooooooooooooooooooooooooXXooooooooooooo;;",
";;oooooooooooooXXooooooooooooooooooooooooooooooXXooooooooooooo;;",
";;oooooooooooooXXooooooooooooooooooooooooooooooXXooooooooooooo;;",
";;oooooooooooooXXooooooooooooooooooooooooooooooXXooooooooooooo;;",
";;oooooooooooooXXooooooooooooooooooooooooooooooXXooooooooooooo;;",
";;oooooooooooooXXooooooooooooooooooooooooooooooXXooooooooooooo;;",
";;oooooooooooooXXooooooooooooooooooooooooooooooXXooooooooooooo;;",
";;oooooooooooooXXooooooooooooooooooooooooooooooXXooooooooooooo;;",
";;oooooooooooooXXooooooooooooooooooooooooooooooXXooooooooooooo;;",
";;oooooooooooooXXooooooooooooooooooooooooooooooXXooooooooooooo;;",
";;oooooooooooooXXooooooooooooooooooooooooooooooXXooooooooooooo;;",
"oo............................................................oo",
"oo............................................................oo",
";;oooooooooooooooooooooooooooooXXooooooooooooooooooooooooooooo;;",
";;oooooooooooooooooooooooooooooXXooooooooooooooooooooooooooooo;;",
";;oooooooooooooooooooooooooooooXXooooooooooooooooooooooooooooo;;",
";;oooooooooooooooooooooooooooooXXooooooooooooooooooooooooooooo;;",
";;oooooooooooooooooooooooooooooXXooooooooooooooooooooooooooooo;;",
";;oooooooooooooooooooooooooooooXXooooooooooooooooooooooooooooo;;",
";;oooooooooooooooooooooooooooooXXooooooooooooooooooooooooooooo;;",
";;oooooooooooooooooooooooooooooXXooooooooooooooooooooooooooooo;;",
";;oooooooooooooooooooooooooooooXXooooooooooooooooooooooooooooo;;",
";;oooooooooooooooooooooooooooooXXooooooooooooooooooooooooooooo;;",
";;oooooooooooooooooooooooooooooXXooooooooooooooooooooooooooooo;;",
";;oooooooooooooooooooooooooooooXXooooooooooooooooooooooooooooo;;",
";;oooooooooooooooooooooooooooooXXooooooooooooooooooooooooooooo;;",
";;oooooooooooooooooooooooooooooXXooooooooooooooooooooooooooooo;;",
"oo............................................................oo",
"oo............................................................oo",
";;oooooooooooooXXooooooooooooooooooooooooooooooXXooooooooooooo;;",
";;oooooooooooooXXooooooooooooooooooooooooooooooXXooooooooooooo;;",
";;oooooooooooooXXooooooooooooooooooooooooooooooXXooooooooooooo;;",
";;oooooooooooooXXooooooooooooooooooooooooooooooXXooooooooooooo;;",
";;oooooooooooooXXooooooooooooooooooooooooooooooXXooooooooooooo;;",
";;oooooooooooooXXooooooooooooooooooooooooooooooXXooooooooooooo;;",
";;oooooooooooooXXooooooooooooooooooooooooooooooXXooooooooooooo;;",
";;oooooooooooooXXooooooooooooooooooooooooooooooXXooooooooooooo;;",
";;OooooooooooooXXooooooooooooooooooooooooooooooXXooooooooooooO;;",
";;$ooooooooooooXXooooooooooooooooooooooooooooooXXoooooooooooo#;;",
";;&ooooooooooooXXooooooooooooooooooooooooooooooXXoooooooooooo&;;",
" ;;$oooooooooooXXooooooooooooooooooooooooooooooXXooooooooooo$;; ",
"  ;;%OoooooooooXXooooooooooooooooooooooooooooooXXoooooooooO%;;  ",
"  ;;;;;;;;;;;;;oo;;;;;;;;;;;;;;;;;;;;;;;;;;;;;;oo;;;;;;;;;;;;;  ",
"    ;;;;;;;;;;;oo;;;;;;;;;;;;;;;;;;;;;;;;;;;;;;oo;;;;;;;;;;;    "
};
